<svg xmlns="http://www.w3.org/2000/svg" width="511" height="511" viewBox="0 0 511 511">
  <path d="M255.5,0C114.391,0,0,114.391,0,255.5S114.391,511,255.5,511,511,396.609,511,255.5,396.609,0,255.5,0Zm0,454.5c-109.9,0-199-89.1-199-199s89.1-199,199-199,199,89.1,199,199S365.405,454.5,255.5,454.5Z" transform="translate(0)" fill="#1a1a18"/>
  <g>
    <path d="M282.271,39.24a.759.759,0,0,0,.578.825l.48.143a.688.688,0,0,1,.554.763q-.061.548-.782.466l-5.3-.6q-.72-.083-.658-.63c.04-.346.285-.541.738-.587l.59-.05a.758.758,0,0,0,.748-.673l.582-5.1q.066-.576.118-1.038c.036-.306.059-.6.07-.867a3.8,3.8,0,0,1,.024-.465c.018-.153.035-.306.053-.461a.745.745,0,0,0-.606-.828l-.682-.165q-.652-.162-.593-.68.053-.462.655-.626l3.9-.927a2.046,2.046,0,0,1,.269-.057.965.965,0,0,1,.234,0,.308.308,0,0,1,.22.113.9.9,0,0,1,.123.714l-.461,3.275Zm.069-14.411a2.147,2.147,0,0,1-1.45-.72,2.064,2.064,0,0,1,.328-2.881,2.152,2.152,0,0,1,1.575-.375,2.112,2.112,0,0,1,1.422.717,2.066,2.066,0,0,1-.329,2.881A2.111,2.111,0,0,1,282.34,24.829Z" transform="translate(0)" fill="#f9f9f9"/>
    <path d="M306.611,43.4a.76.76,0,0,0,.514.867l.491.211a.653.653,0,0,1,.5.775q-.1.541-.816.405l-5.212-1q-.713-.137-.609-.678.1-.512.781-.529h.619a.759.759,0,0,0,.8-.615l1.188-6.21a4.533,4.533,0,0,0-.031-2.545,1.734,1.734,0,0,0-1.359-1,3.4,3.4,0,0,0-1.727.157,9.45,9.45,0,0,0-1.9.892q-.023.261-.064.564t-.1.615l-1.248,6.522a.76.76,0,0,0,.514.867l.491.211a.653.653,0,0,1,.5.775q-.1.542-.816.405l-5.212-1q-.712-.136-.609-.678c.066-.341.325-.518.78-.529l.592-.005a.76.76,0,0,0,.8-.616l1.187-6.21a4.653,4.653,0,0,0-.018-2.527,1.689,1.689,0,0,0-1.343-1.01,3.463,3.463,0,0,0-1.739.14,9.233,9.233,0,0,0-1.881.88l-1.476,7.72a.758.758,0,0,0,.514.865l.468.179a.69.69,0,0,1,.5.8c-.069.361-.342.5-.816.405l-5.241-1c-.475-.091-.678-.316-.608-.678q.1-.511.78-.529h.62a.757.757,0,0,0,.8-.615l.986-5.156q.109-.569.2-1.025c.057-.3.1-.572.124-.8a3.4,3.4,0,0,1,.052-.433c.026-.132.053-.275.082-.427a.746.746,0,0,0-.542-.872l-.7-.221q-.64-.211-.542-.723a.774.774,0,0,1,.707-.6l3.549-.65a1.29,1.29,0,0,1,.534-.016.339.339,0,0,1,.217.1.8.8,0,0,1,.131.7l-.173,1.68a7.835,7.835,0,0,1,2.456-1.42,4.988,4.988,0,0,1,2.57-.159A3.913,3.913,0,0,1,299,30.7a3.512,3.512,0,0,1,.889,2.148,7.682,7.682,0,0,1,2.572-1.487,5.512,5.512,0,0,1,2.692-.105A3.378,3.378,0,0,1,307.66,32.9a5.881,5.881,0,0,1,.226,3.837Z" transform="translate(0)" fill="#f9f9f9"/>
    <path d="M317,34.428a.8.8,0,0,1,.064.713l-.232,1.11a6.588,6.588,0,0,1,2.26-.868,5.147,5.147,0,0,1,2.292.168,4.62,4.62,0,0,1,2.193,1.286,5.25,5.25,0,0,1,1.149,2.025,7.252,7.252,0,0,1,.292,2.425,10.467,10.467,0,0,1-.4,2.48,10.054,10.054,0,0,1-1.066,2.423,7.111,7.111,0,0,1-1.674,1.915,5.61,5.61,0,0,1-2.211,1.064,5.159,5.159,0,0,1-2.653-.122,4.843,4.843,0,0,1-3.064-2.55l-.437,1.5q-.234.809-.5,1.772t-.5,1.865a.71.71,0,0,0,.394.929l.919.478a.653.653,0,0,1,.426.819q-.153.529-.85.327l-5.625-1.634q-.7-.2-.543-.732a.691.691,0,0,1,.807-.49l.681.047a.734.734,0,0,0,.831-.574q.286-.883.58-1.84t.536-1.792l2.16-7.436.291-1q.13-.446.2-.788a3.366,3.366,0,0,1,.094-.426c.037-.129.078-.269.121-.418a.745.745,0,0,0-.458-.918l-.644-.277c-.411-.181-.568-.437-.471-.771a.773.773,0,0,1,.759-.535l3.567-.323a1.215,1.215,0,0,1,.506.027A.51.51,0,0,1,317,34.428Zm-.316,2.958-2.258,7.77A4.334,4.334,0,0,0,316.7,47a2.962,2.962,0,0,0,2.673-.522,6.313,6.313,0,0,0,2.017-3.461,7.435,7.435,0,0,0,.291-4.068,2.6,2.6,0,0,0-1.818-1.9A5.2,5.2,0,0,0,316.681,37.386Z" transform="translate(0)" fill="#f9f9f9"/>
    <path d="M329.554,50.489a.709.709,0,0,0,.342.95l.536.312a.653.653,0,0,1,.38.841q-.184.52-.867.279l-5.224-1.841q-.684-.242-.5-.761.172-.492.851-.407l.64.1a.709.709,0,0,0,.862-.526q.335-.866.658-1.736t.631-1.745l3.682-10.449a.683.683,0,0,0-.378-.932l-.783-.4q-.6-.3-.426-.8a.716.716,0,0,1,.833-.444l3.938.342a.708.708,0,0,1,.252.027l.2.072a.4.4,0,0,1,.227.142c.084.112.061.35-.067.714l-1.2,3.144-3.384,9.6q-.309.874-.6,1.754T329.554,50.489Z" transform="translate(0)" fill="#f9f9f9"/>
    <path d="M346.49,51.29a.728.728,0,0,1-.994.28l-7.774-3.208a5.915,5.915,0,0,0-.336,4.159,4.487,4.487,0,0,0,4.357,2.786,5.187,5.187,0,0,0,1.8-.527.877.877,0,0,1,.7-.09.432.432,0,0,1,.208.181c.195.289.119.572-.224.848a5.24,5.24,0,0,1-2.874,1.261,6.787,6.787,0,0,1-3.381-.548,7.16,7.16,0,0,1-2.458-1.61,5.941,5.941,0,0,1-1.376-2.215,6.466,6.466,0,0,1-.313-2.623,9.311,9.311,0,0,1,.7-2.847,8.4,8.4,0,0,1,1.551-2.466A7.323,7.323,0,0,1,338.289,43a6.617,6.617,0,0,1,2.657-.661,6.767,6.767,0,0,1,2.867.54,6.183,6.183,0,0,1,2.019,1.3,5.35,5.35,0,0,1,1.216,1.8,5.222,5.222,0,0,1,.37,2.145,6.654,6.654,0,0,1-.531,2.353c-.059.143-.116.281-.172.415A1.826,1.826,0,0,1,346.49,51.29Zm-8.2-4.139,4.021,1.659a1.78,1.78,0,0,0,1.466.134,1.845,1.845,0,0,0,.8-.987,3.239,3.239,0,0,0,.146-2.293,2.318,2.318,0,0,0-1.37-1.506,2.673,2.673,0,0,0-1.606-.177,3.711,3.711,0,0,0-1.429.65,5.758,5.758,0,0,0-1.17,1.164A8.874,8.874,0,0,0,338.285,47.151Z" transform="translate(0)" fill="#f9f9f9"/>
    <path d="M365.23,66.954a.759.759,0,0,0,.243.977l.408.345a.652.652,0,0,1,.257.886q-.255.489-.9.153l-4.7-2.458q-.643-.336-.388-.824c.162-.308.461-.4.9-.282l.594.179a.758.758,0,0,0,.94-.359l2.928-5.6a4.534,4.534,0,0,0,.7-2.445,1.738,1.738,0,0,0-1.013-1.348,3.413,3.413,0,0,0-1.7-.348,9.536,9.536,0,0,0-2.074.307q-.1.244-.223.521c-.086.184-.178.371-.276.559L357.854,63.1a.759.759,0,0,0,.242.977l.409.344a.653.653,0,0,1,.257.887q-.257.487-.9.152L353.16,63q-.642-.334-.387-.824c.161-.308.46-.4.9-.282l.568.166a.76.76,0,0,0,.94-.359l2.928-5.6a4.659,4.659,0,0,0,.711-2.427,1.685,1.685,0,0,0-.994-1.353,3.457,3.457,0,0,0-1.705-.368,9.2,9.2,0,0,0-2.055.3l-3.64,6.966a.758.758,0,0,0,.242.977l.4.3a.691.691,0,0,1,.244.913q-.255.489-.9.152l-4.729-2.471q-.643-.336-.388-.824c.162-.309.461-.4.9-.282l.594.179a.758.758,0,0,0,.94-.359l2.431-4.652.484-.926c.143-.273.259-.519.35-.733a3.384,3.384,0,0,1,.176-.4l.2-.385a.745.745,0,0,0-.267-.991l-.6-.413q-.552-.385-.31-.849a.774.774,0,0,1,.85-.374l3.586.4a1.266,1.266,0,0,1,.516.139c.1.054.162.106.179.159a.8.8,0,0,1-.077.712l-.651,1.558a7.855,7.855,0,0,1,2.761-.651,4.981,4.981,0,0,1,2.506.589,3.915,3.915,0,0,1,1.749,1.6,3.518,3.518,0,0,1,.231,2.313,7.677,7.677,0,0,1,2.892-.681,5.513,5.513,0,0,1,2.608.675,3.379,3.379,0,0,1,1.924,2.3,5.873,5.873,0,0,1-.89,3.739Z" transform="translate(0)" fill="#f9f9f9"/>
    <path d="M381.474,70.849a.728.728,0,0,1-1.029.1L373.371,66.4A5.916,5.916,0,0,0,372.3,70.43a4.489,4.489,0,0,0,3.787,3.521,5.222,5.222,0,0,0,1.867-.2.869.869,0,0,1,.7.037.425.425,0,0,1,.173.214q.209.478-.373.794a5.232,5.232,0,0,1-3.053.726,6.8,6.8,0,0,1-3.229-1.145,7.136,7.136,0,0,1-2.129-2.024,5.932,5.932,0,0,1-.957-2.425,6.472,6.472,0,0,1,.161-2.637,9.307,9.307,0,0,1,1.2-2.675,8.375,8.375,0,0,1,1.967-2.148,7.31,7.31,0,0,1,2.477-1.252,6.636,6.636,0,0,1,2.733-.174,6.751,6.751,0,0,1,2.724,1.045,6.193,6.193,0,0,1,1.753,1.644,5.376,5.376,0,0,1,.873,1.993,5.272,5.272,0,0,1-.02,2.176,6.684,6.684,0,0,1-.945,2.22l-.243.378A1.868,1.868,0,0,1,381.474,70.849Zm-7.332-5.542L377.8,67.66a1.791,1.791,0,0,0,1.419.4,1.862,1.862,0,0,0,.964-.829A3.238,3.238,0,0,0,380.736,65a2.316,2.316,0,0,0-1.078-1.728,2.666,2.666,0,0,0-1.548-.461,3.686,3.686,0,0,0-1.522.383,5.8,5.8,0,0,0-1.36.935A8.927,8.927,0,0,0,374.142,65.307Z" transform="translate(0)" fill="#f9f9f9"/>
    <path d="M390.808,84.608a.757.757,0,0,0,.082,1l.342.366a.689.689,0,0,1,.094.939q-.332.441-.911.007l-4.271-3.2q-.581-.435-.25-.876a.653.653,0,0,1,.911-.152l.533.255a.759.759,0,0,0,.986-.2l3.789-5.061a5.343,5.343,0,0,0,1.15-2.237,1.6,1.6,0,0,0-.776-1.5,3.659,3.659,0,0,0-1.642-.686,8.345,8.345,0,0,0-2.187-.007L383.982,79.5a.76.76,0,0,0,.082,1l.349.406a.654.654,0,0,1,.111.917q-.33.441-.911.006L379.3,78.6q-.58-.433-.251-.875c.209-.279.519-.324.934-.135l.557.272a.758.758,0,0,0,.986-.2l3.146-4.2.626-.836c.185-.247.34-.47.463-.667a3.515,3.515,0,0,1,.238-.366l.261-.348a.745.745,0,0,0-.106-1.021l-.5-.487q-.483-.468-.169-.887a.774.774,0,0,1,.9-.233l3.476.972a1.3,1.3,0,0,1,.487.22.336.336,0,0,1,.15.186.8.8,0,0,1-.19.69l-.909,1.457a8.372,8.372,0,0,1,2.925-.183,5.2,5.2,0,0,1,2.416,1.031,3.486,3.486,0,0,1,1.595,2.661,6.105,6.105,0,0,1-1.537,3.649Z" transform="translate(0)" fill="#f9f9f9"/>
    <path d="M398.526,91.328a1.192,1.192,0,0,1,.534.222.522.522,0,0,1,.178.417.634.634,0,0,1-.642.672,3.909,3.909,0,0,1-1.62-.173,4.915,4.915,0,0,1-1.666-.971,3.682,3.682,0,0,1-1.4-2.228,3.163,3.163,0,0,1,.921-2.506l.441-.52a5.463,5.463,0,0,1,.405-.436l4.267-5.05a.641.641,0,0,0-.086-1.022l-.464-.393a.627.627,0,0,1-.105-1,.684.684,0,0,1,1-.145l.85.566a.793.793,0,0,0,1-.063l2.083-1.657a.71.71,0,0,1,1.01.018l.621.524a.628.628,0,0,1,.063,1L404.3,80.409a.64.64,0,0,0,.086,1.022l1.528,1.291A.641.641,0,0,1,406,83.744l-.112.133a.643.643,0,0,1-1.023.086l-1.55-1.31a.641.641,0,0,0-1.022.086l-4.734,5.6a2.26,2.26,0,0,0-.671,1.446,1.394,1.394,0,0,0,.531,1.056,2.354,2.354,0,0,0,.456.291A2.092,2.092,0,0,0,398.526,91.328Z" transform="translate(0)" fill="#f9f9f9"/>
    <path d="M426.782,103.1q.5.519.089.924a.68.68,0,0,1-.965.048l-.426-.314a.978.978,0,0,0-1-.076l-10.63,4.706a.825.825,0,0,1-.983-.179l-.06-.062a.822.822,0,0,1-.15-.987l4.041-8.534-8.688,3.75a.824.824,0,0,1-.982-.178l-.06-.063a.825.825,0,0,1-.151-.987l5.077-10.59a.93.93,0,0,0-.088-1.006l-.161-.208a.654.654,0,0,1,.035-.963q.414-.4.921.116l3.636,3.744q.506.52.089.924a.656.656,0,0,1-.964.007l-.344-.272a.75.75,0,0,0-.581-.182.578.578,0,0,0-.427.393l-3.42,6.718,6.976-3.057q.723-.338.26-.98l-.22-.311a.655.655,0,0,1,.034-.963q.416-.4.922.115l3.334,3.433q.5.519.088.924a.655.655,0,0,1-.963.007l-.285-.21q-.649-.461-.988.232l-3.195,6.783,6.649-3.144a.593.593,0,0,0,.261-.98l-.321-.456a.713.713,0,0,1,.054-.984q.417-.4.922.116Z" transform="translate(0)" fill="#f9f9f9"/>
    <path d="M428.135,122.424a.757.757,0,0,0-.162.993l.244.437a.691.691,0,0,1-.135.935q-.427.348-.886-.214l-3.393-4.156q-.459-.561-.032-.909.4-.33.939.094l.475.4a.758.758,0,0,0,1,.039l4.9-4a5.173,5.173,0,0,0,1.645-1.905,1.633,1.633,0,0,0-.4-1.659,3.847,3.847,0,0,0-1.427-1.081,7.041,7.041,0,0,0-2.163-.518l-6,4.9a.709.709,0,0,0-.2.989l.244.437a.69.69,0,0,1-.136.934c-.284.233-.58.161-.884-.213l-3.375-4.133q-.459-.562-.033-.91c.27-.22.582-.189.939.095l.457.376a.76.76,0,0,0,1.006.04l11.478-9.373a.683.683,0,0,0,.162-.994l-.46-.747q-.354-.572.05-.9a.705.705,0,0,1,.924.032l3.167,2.319a.686.686,0,0,1,.2.154l.138.169a.386.386,0,0,1,.12.239c.014.138-.13.33-.429.574l-2.661,2.061-3.683,3.008a8.483,8.483,0,0,1,2.89.56,5.292,5.292,0,0,1,2.086,1.591,3.483,3.483,0,0,1,.906,2.967,6.106,6.106,0,0,1-2.371,3.171Z" transform="translate(0)" fill="#f9f9f9"/>
    <path d="M437.285,135.376c.054.009.063.157.027.442q-.082.484-.726.478a2.547,2.547,0,0,1-1.332-.3,3.178,3.178,0,0,1-.954-.923,3.07,3.07,0,0,1-.665-1.821,2.59,2.59,0,0,1,.557-1.548,10.071,10.071,0,0,1-2.233-.623,4.209,4.209,0,0,1-1.727-1.515,4.157,4.157,0,0,1-.836-2.693,3.454,3.454,0,0,1,3.4-2.972,5.752,5.752,0,0,1,2.041.476,10.443,10.443,0,0,1,1.944,1.094q.926.659,1.676,1.266l1.208.957.616-.435a4.407,4.407,0,0,0,1.818-1.976,2.328,2.328,0,0,0-.533-1.985q-.083-.119-.159-.225a1.434,1.434,0,0,0-.182-.208.757.757,0,0,0-.987-.191l-1.122.473q-1.622.72-2.425-.417a1.425,1.425,0,0,1-.272-1.015,1.393,1.393,0,0,1,.5-.922,3.846,3.846,0,0,1,3.167-.09,6.873,6.873,0,0,1,3.1,2.624,4.653,4.653,0,0,1,1.078,3.535q-.312,1.569-2.7,3.26l-4.762,3.362q-1.065.753-.6,1.416a1.092,1.092,0,0,0,.533.405.956.956,0,0,0,.353.071A.749.749,0,0,1,437.285,135.376Zm-2.235-4.421,3.671-2.594q-.544-.468-1.217-.968a7.691,7.691,0,0,0-1.406-.835,4.009,4.009,0,0,0-1.487-.37,2.251,2.251,0,0,0-1.44.449,1.985,1.985,0,0,0-.912,1.372,2.228,2.228,0,0,0,.462,1.609,2.561,2.561,0,0,0,.816.754A7.26,7.26,0,0,0,435.05,130.955Z" transform="translate(0)" fill="#f9f9f9"/>
    <path d="M444.606,147.283a1.227,1.227,0,0,0-.087.97l.268.72a.689.689,0,0,1-.262.906q-.471.288-.848-.332L442,146.8a.989.989,0,0,1-.031-1l3.342-6.384-2.178-.507q-.594.362-1.231.767t-1.279.8a.776.776,0,0,0-.321.978l.232.605q.224.645-.222.916-.471.288-.848-.332l-2.9-4.754q-.376-.619.094-.906.445-.272.916.223l.432.484a.709.709,0,0,0,1,.137q.807-.459,1.644-.952t1.556-.931l9.459-5.767a.684.684,0,0,0,.3-.962l-.354-.8q-.273-.615.173-.887a.706.706,0,0,1,.911.158l2.82,2.731a.674.674,0,0,1,.177.18q.054.085.114.186a.411.411,0,0,1,.087.253q-.009.209-.5.511l-2.918,1.676-7.874,4.8,5.764,1.377a.634.634,0,0,0,.636-.1.5.5,0,0,0,.036-.583l-.147-.352a.655.655,0,0,1,.247-.931q.5-.3.873.317l2.566,4.209q.377.619-.118.921a.656.656,0,0,1-.941-.207l-.913-1.108a1.8,1.8,0,0,0-.785-.506l-3.538-.9Z" transform="translate(0)" fill="#f9f9f9"/>
    <path d="M451.816,160.912c.052.016.041.163-.031.442q-.147.469-.785.375a2.532,2.532,0,0,1-1.279-.478,3.187,3.187,0,0,1-.822-1.043,3.074,3.074,0,0,1-.413-1.894,2.592,2.592,0,0,1,.761-1.459,10.072,10.072,0,0,1-2.13-.918,4.211,4.211,0,0,1-1.507-1.733,4.159,4.159,0,0,1-.466-2.782,3.452,3.452,0,0,1,3.772-2.487,5.754,5.754,0,0,1,1.958.747,10.358,10.358,0,0,1,1.779,1.345q.831.777,1.491,1.48l1.069,1.112.668-.348a4.41,4.41,0,0,0,2.067-1.714,2.329,2.329,0,0,0-.261-2.039l-.126-.244a1.405,1.405,0,0,0-.154-.231.755.755,0,0,0-.952-.322l-1.175.318q-1.7.5-2.346-.74a1.423,1.423,0,0,1-.134-1.042,1.4,1.4,0,0,1,.621-.847,3.848,3.848,0,0,1,3.151.338,6.866,6.866,0,0,1,2.715,3.016,4.656,4.656,0,0,1,.592,3.649q-.521,1.512-3.118,2.865l-5.17,2.692q-1.16.6-.783,1.323a1.086,1.086,0,0,0,.474.472.953.953,0,0,0,.34.118A.772.772,0,0,1,451.816,160.912Zm-1.62-4.682,3.988-2.076q-.477-.537-1.076-1.124a7.714,7.714,0,0,0-1.281-1.016,4.02,4.02,0,0,0-1.424-.567,2.256,2.256,0,0,0-1.487.251,1.992,1.992,0,0,0-1.089,1.237,2.238,2.238,0,0,0,.241,1.656,2.578,2.578,0,0,0,.708.858A7.288,7.288,0,0,0,450.2,156.23Z" transform="translate(0)" fill="#f9f9f9"/>
    <path d="M457.891,174.426a.758.758,0,0,0-.426.912l.116.487a.691.691,0,0,1-.385.863q-.506.218-.794-.446l-2.124-4.9q-.288-.665.217-.884a.652.652,0,0,1,.866.32l.337.486a.761.761,0,0,0,.958.312l5.8-2.517a5.316,5.316,0,0,0,2.107-1.372,1.6,1.6,0,0,0,.074-1.691,3.674,3.674,0,0,0-1.086-1.41,8.254,8.254,0,0,0-1.9-1.09l-7.157,3.1a.76.76,0,0,0-.426.913l.1.525a.653.653,0,0,1-.359.85q-.5.22-.793-.446l-2.147-4.948q-.288-.664.217-.884.479-.209.877.346l.348.513a.762.762,0,0,0,.958.312l4.816-2.09.957-.415q.426-.184.733-.35a3.7,3.7,0,0,1,.388-.2l.4-.173a.743.743,0,0,0,.414-.938l-.2-.674q-.184-.646.294-.854a.773.773,0,0,1,.9.244l2.536,2.566a1.3,1.3,0,0,1,.314.433.337.337,0,0,1,.039.236q-.041.27-.508.5l-1.512.814a8.342,8.342,0,0,1,2.632,1.293,5.185,5.185,0,0,1,1.587,2.092,3.484,3.484,0,0,1,.065,3.1,6.1,6.1,0,0,1-3.144,2.407Z" transform="translate(0)" fill="#f9f9f9"/>
    <path d="M473.559,186.113l-.575.2a.64.64,0,0,1-.924-.443l-.655-1.86a4.237,4.237,0,0,1-2,1.381,4.393,4.393,0,0,1-2.046.257,4.167,4.167,0,0,1-1.725-.623,4.91,4.91,0,0,1-1.356-1.321,7.385,7.385,0,0,1-.928-1.81,6.713,6.713,0,0,1-.409-2.04,4.069,4.069,0,0,0-.666-.1,1.589,1.589,0,0,0-.627.1,1.057,1.057,0,0,0-.723.7,2.456,2.456,0,0,0,.18,1.428l.98,2.79a6.278,6.278,0,0,1,.42,3.864,2.954,2.954,0,0,1-1.959,1.9,3.627,3.627,0,0,1-2.452.063,5.455,5.455,0,0,1-2.029-1.27,8.987,8.987,0,0,1-1.547-2.038,14,14,0,0,1-1.022-2.208,8.447,8.447,0,0,1-.658-4.41,2.347,2.347,0,0,1,1.572-2,2.389,2.389,0,0,1,1.68.056,6.043,6.043,0,0,1,1.957,1.371,2.667,2.667,0,0,1,.56-1.426,2.505,2.505,0,0,1,2.66-.781,6.347,6.347,0,0,1,1.73.9,4.254,4.254,0,0,1,.925-2.047,4.418,4.418,0,0,1,1.982-1.311,4.337,4.337,0,0,1,2.019-.249,4.187,4.187,0,0,1,1.726.624,5.129,5.129,0,0,1,1.365,1.3,6.857,6.857,0,0,1,.936,1.791,5.866,5.866,0,0,1,.172,3.813l1.752,2.274a2.065,2.065,0,0,1,.169.217,1.049,1.049,0,0,1,.105.209.357.357,0,0,1-.117.456A1.964,1.964,0,0,1,473.559,186.113Zm-14.126-.661-1.01-2.872a7.144,7.144,0,0,1-.238-.808q-.084-.37-.135-.69a3.273,3.273,0,0,0-2.064-.013,1.93,1.93,0,0,0-1.425,1.454,4.7,4.7,0,0,0,.3,2.416,6.292,6.292,0,0,0,1.814,2.929,2.1,2.1,0,0,0,2.039.513,1.456,1.456,0,0,0,.912-.905,2.114,2.114,0,0,0,.092-.831A4.675,4.675,0,0,0,459.433,185.452Zm5.025-3.979a2.163,2.163,0,0,0,1.482,1.462,5.031,5.031,0,0,0,4.656-1.622,2.288,2.288,0,0,0-1.23-3.456,5.236,5.236,0,0,0-4.656,1.622A2.03,2.03,0,0,0,464.458,181.473Z" transform="translate(0)" fill="#f9f9f9"/>
    <path d="M463.53,200.025l1.649-.672-.024-.084a5.231,5.231,0,0,1-3.169-3.569,4,4,0,0,1,2.724-5.221c3.267-.916,5.868,1.487,7.3,6.716l.279-.078c1.117-.313,3.041-1.183,2.267-3.948a6.992,6.992,0,0,0-1.993-3.236l1.463-1.013a8.7,8.7,0,0,1,2.446,4.1c1.159,4.133-1.38,5.929-4.088,6.688l-5.055,1.417a19.741,19.741,0,0,0-3.176,1.131Zm6.8-2.3c-.7-2.7-2.023-5.607-4.648-4.871a2.259,2.259,0,0,0-1.7,2.975,3.494,3.494,0,0,0,3.178,2.633,2.652,2.652,0,0,0,.821-.08Zm11.261-2.374L480,195.8l-1.761-6.282,1.592-.447Z" transform="translate(0)" fill="#f9f9f9"/>
    <path d="M482.35,289.779a.537.537,0,0,1-.256.138,1.869,1.869,0,0,1-.472.016l-2.41-.162a7.469,7.469,0,0,1,2.093,2.152,3.28,3.28,0,0,1,.529,2.207,2.387,2.387,0,0,1-.523,1.123,1.672,1.672,0,0,1-1.293.6,1.721,1.721,0,0,1-1.2-.682,1.835,1.835,0,0,1-.271-1.391,2.564,2.564,0,0,1,1.168-1.7l.165-.122a8.112,8.112,0,0,0-1.1-1.327,7.572,7.572,0,0,0-1.544-1.129l-6.25-.951a.747.747,0,0,0-.875.541l-.311.891q-.245.637-.76.56c-.363-.056-.509-.323-.435-.8l.873-5.734q.108-.717.653-.634.516.078.559.76l.028.591a.759.759,0,0,0,.644.773l5.19.789,1.032.157c.306.047.574.078.807.094a3.346,3.346,0,0,1,.434.037l.43.065a.745.745,0,0,0,.851-.575l.19-.674c.125-.431.358-.62.7-.568a.772.772,0,0,1,.629.682l.784,3.522a1.209,1.209,0,0,1,.04.5A.467.467,0,0,1,482.35,289.779Z" transform="translate(0)" fill="#f9f9f9"/>
    <path d="M472.594,308.886a.726.726,0,0,1-.453-.928l1.768-8.222a5.917,5.917,0,0,0-4.152.412,4.486,4.486,0,0,0-1.963,4.784,5.156,5.156,0,0,0,.84,1.678.879.879,0,0,1,.212.669.432.432,0,0,1-.14.237q-.375.363-.875-.07a5.244,5.244,0,0,1-1.754-2.6,6.808,6.808,0,0,1-.064-3.425,7.162,7.162,0,0,1,1.145-2.7,5.941,5.941,0,0,1,1.935-1.75,6.474,6.474,0,0,1,2.525-.776,9.275,9.275,0,0,1,2.926.185,8.347,8.347,0,0,1,2.7,1.085,7.337,7.337,0,0,1,2.044,1.878,6.624,6.624,0,0,1,1.124,2.5,6.775,6.775,0,0,1-.019,2.917,6.209,6.209,0,0,1-.923,2.22,5.379,5.379,0,0,1-1.558,1.518,5.229,5.229,0,0,1-2.045.747,6.675,6.675,0,0,1-2.41-.1l-.439-.1A1.819,1.819,0,0,1,472.594,308.886Zm2.607-8.812-.914,4.252a1.786,1.786,0,0,0,.129,1.466,1.848,1.848,0,0,0,1.114.611,3.241,3.241,0,0,0,2.282-.265,2.322,2.322,0,0,0,1.239-1.617,2.665,2.665,0,0,0-.114-1.612,3.709,3.709,0,0,0-.894-1.29,5.786,5.786,0,0,0-1.355-.944A8.76,8.76,0,0,0,475.2,300.074Z" transform="translate(0)" fill="#f9f9f9"/>
    <path d="M465.408,314.247a.712.712,0,0,0-.923.411l-.27.558a.654.654,0,0,1-.812.441q-.531-.144-.341-.844l1.448-5.346q.189-.7.72-.556.5.137.47.818l-.054.646a.709.709,0,0,0,.588.821q.888.27,1.781.527t1.787.5l10.693,2.9a.684.684,0,0,0,.9-.447l.339-.809q.26-.621.763-.485t.5.8l-.049,3.953a.681.681,0,0,1-.009.253c-.017.065-.036.135-.056.21a.412.412,0,0,1-.124.237c-.106.091-.345.087-.718-.015l-3.225-.963L469,315.189q-.9-.242-1.8-.471T465.408,314.247Z" transform="translate(0)" fill="#f9f9f9"/>
    <path d="M460.5,329.45q.037.074-.338.286-.438.224-.817-.3a2.531,2.531,0,0,1-.553-1.248,3.18,3.18,0,0,1,.171-1.317,3.066,3.066,0,0,1,1.063-1.62,2.59,2.59,0,0,1,1.575-.477,10.038,10.038,0,0,1-.833-2.164,4.716,4.716,0,0,1,1.843-4.569,3.452,3.452,0,0,1,4.417.956,5.739,5.739,0,0,1,.836,1.92,10.469,10.469,0,0,1,.285,2.213q.024,1.137-.016,2.1l-.046,1.541.717.235a4.409,4.409,0,0,0,2.67.278,2.331,2.331,0,0,0,1.274-1.613l.086-.262a1.429,1.429,0,0,0,.058-.27.756.756,0,0,0-.436-.906l-1.05-.617q-1.545-.872-1.113-2.195a1.424,1.424,0,0,1,.651-.824,1.4,1.4,0,0,1,1.04-.149,3.851,3.851,0,0,1,1.963,2.488,6.87,6.87,0,0,1-.255,4.05,4.654,4.654,0,0,1-2.193,2.975q-1.446.687-4.229-.222l-5.54-1.811q-1.242-.4-1.494.366a1.087,1.087,0,0,0,0,.67.917.917,0,0,0,.153.325A.711.711,0,0,1,460.5,329.45Zm2.212-4.433,4.272,1.4c.035-.477.051-1,.051-1.555a7.723,7.723,0,0,0-.17-1.627,4.055,4.055,0,0,0-.59-1.413,2.269,2.269,0,0,0-1.221-.887,1.992,1.992,0,0,0-1.646.088,2.229,2.229,0,0,0-1.014,1.331,2.585,2.585,0,0,0-.118,1.106A7.26,7.26,0,0,0,462.707,325.017Z" transform="translate(0)" fill="#f9f9f9"/>
    <path d="M455.829,340.945a1.072,1.072,0,0,0-.447.18,1.447,1.447,0,0,0-.339.381l-.345.549a.7.7,0,0,1-.884.334q-.51-.206-.242-.879l2.038-5.088q.27-.673.782-.468a.652.652,0,0,1,.381.84l-.015.119a.672.672,0,0,0,.129.613.563.563,0,0,0,.581.108l3.56-.7-2-3.113a.635.635,0,0,0-.484-.351.589.589,0,0,0-.507.328l-.15.221a.654.654,0,0,1-.857.345q-.512-.206-.242-.878l1.445-3.608q.27-.673.781-.468c.323.13.447.418.371.867l-.156.781a1.217,1.217,0,0,0,.145.964l2.884,4.654,6.069-1.348a1.094,1.094,0,0,0,.787-.56l.238-.437a.654.654,0,0,1,.893-.36q.54.216.269.889l-1.887,4.711q-.27.672-.808.457a.667.667,0,0,1-.424-.888.468.468,0,0,0-.127-.5.726.726,0,0,0-.612-.073l-3.274.688,1.824,2.854a.8.8,0,0,0,.483.4.392.392,0,0,0,.444-.213l.032-.08a.668.668,0,0,1,.921-.35q.537.215.269.889l-1.219,3.041q-.269.674-.808.459a.716.716,0,0,1-.425-.891l.1-.488a1.215,1.215,0,0,0-.146-.965l-2.669-4.411Z" transform="translate(0)" fill="#f9f9f9"/>
    <path d="M446.251,360.84q.025.078-.379.229c-.312.1-.565-.042-.76-.423a2.543,2.543,0,0,1-.348-1.322,3.171,3.171,0,0,1,.378-1.272,3.071,3.071,0,0,1,1.307-1.432,2.6,2.6,0,0,1,1.63-.221,10.037,10.037,0,0,1-.479-2.268,4.2,4.2,0,0,1,.545-2.232,4.158,4.158,0,0,1,2-1.987,3.451,3.451,0,0,1,4.208,1.645,5.739,5.739,0,0,1,.522,2.029,10.44,10.44,0,0,1-.071,2.23q-.156,1.125-.349,2.072l-.29,1.513.671.345a4.408,4.408,0,0,0,2.593.7,2.331,2.331,0,0,0,1.513-1.389c.045-.086.086-.167.126-.245a1.429,1.429,0,0,0,.1-.258.758.758,0,0,0-.287-.963l-.938-.777q-1.387-1.106-.751-2.343a1.428,1.428,0,0,1,.774-.711,1.4,1.4,0,0,1,1.05.019,3.858,3.858,0,0,1,1.544,2.768,6.879,6.879,0,0,1-.9,3.958,4.65,4.65,0,0,1-2.637,2.589q-1.536.45-4.14-.891l-5.183-2.667q-1.16-.6-1.532.125a1.081,1.081,0,0,0-.112.66.94.94,0,0,0,.1.345A.727.727,0,0,1,446.251,360.84Zm2.887-4.027,4,2.058q.164-.7.3-1.527a7.648,7.648,0,0,0,.089-1.633,4,4,0,0,0-.358-1.489,2.263,2.263,0,0,0-1.064-1.071,1.992,1.992,0,0,0-1.639-.173,2.228,2.228,0,0,0-1.213,1.152,2.581,2.581,0,0,0-.291,1.073A7.193,7.193,0,0,0,449.138,356.813Z" transform="translate(0)" fill="#f9f9f9"/>
    <path d="M438.738,373.585a.759.759,0,0,0-.991.179l-.33.377a.69.69,0,0,1-.926.183q-.471-.285-.095-.905l2.769-4.562q.376-.62.848-.334a.655.655,0,0,1,.239.892l-.2.557a.759.759,0,0,0,.3.961l5.4,3.281a5.356,5.356,0,0,0,2.338.927,1.6,1.6,0,0,0,1.423-.917,3.673,3.673,0,0,0,.523-1.7,8.256,8.256,0,0,0-.2-2.176l-6.669-4.049a.758.758,0,0,0-.99.179l-.37.386a.654.654,0,0,1-.9.2q-.471-.288-.094-.907l2.8-4.61q.375-.62.847-.334c.3.181.372.485.224.916l-.217.581a.76.76,0,0,0,.3.962l4.486,2.724q.5.3.893.542c.264.16.5.292.709.4a3.661,3.661,0,0,1,.387.2c.116.07.24.145.371.226a.746.746,0,0,0,1.006-.2l.436-.55c.281-.35.569-.435.867-.254a.773.773,0,0,1,.318.872l-.629,3.553a1.309,1.309,0,0,1-.172.507c-.061.1-.118.154-.17.168a.8.8,0,0,1-.706-.123l-1.537-.764a8.365,8.365,0,0,1,.464,2.894,5.185,5.185,0,0,1-.792,2.5,3.487,3.487,0,0,1-2.493,1.845,6.105,6.105,0,0,1-3.781-1.177Z" transform="translate(0)" fill="#f9f9f9"/>
    <path d="M429.8,386.419a.743.743,0,0,0-1.025.089l-.448.429q-.505.457-.931.155t-.067-.9l1.754-2.809a.689.689,0,0,1,.974-.267l.918.512a6.322,6.322,0,0,1-.119-2.257,4.827,4.827,0,0,1,.907-2.1,4.942,4.942,0,0,1,1.953-1.689,5.274,5.274,0,0,1,2.308-.49,7.133,7.133,0,0,1,2.408.47,9.858,9.858,0,0,1,2.271,1.209,9.328,9.328,0,0,1,1.918,1.832,7.393,7.393,0,0,1,1.229,2.248,5.712,5.712,0,0,1,.256,2.461,5.223,5.223,0,0,1-1,2.476,4.756,4.756,0,0,1-3.507,2.022l3.919,2.8a.7.7,0,0,0,1.025-.088l.666-.736c.306-.329.6-.391.884-.189a.717.717,0,0,1,.2.924l-1.42,3.688a.662.662,0,0,1-.1.234l-.127.178c-.078.11-.144.169-.2.179q-.179.049-.651-.286l-2.689-2.025Zm2.21-2.2,6.588,4.7a4.637,4.637,0,0,0,2.509-1.521,2.766,2.766,0,0,0,.573-1.677,3.578,3.578,0,0,0-.428-1.622,6.163,6.163,0,0,0-1.073-1.443,10.316,10.316,0,0,0-1.325-1.14,6.5,6.5,0,0,0-3.754-1.5,2.934,2.934,0,0,0-2.442,1.251A4.382,4.382,0,0,0,432.012,384.22Z" transform="translate(0)" fill="#f9f9f9"/>
    <path d="M417.654,402.626a.845.845,0,0,1-.07.745.472.472,0,0,1-.177.115q-.483.158-.771-.438a4.847,4.847,0,0,1-.387-3,6.214,6.214,0,0,1,1.49-2.912,6.863,6.863,0,0,1,2.231-1.75,5.763,5.763,0,0,1,2.457-.574,6.292,6.292,0,0,1,2.5.522,8.947,8.947,0,0,1,2.388,1.517,7.817,7.817,0,0,1,1.78,2.2,6.917,6.917,0,0,1,.806,2.544,6.426,6.426,0,0,1-.257,2.619,6.814,6.814,0,0,1-1.409,2.463,6.627,6.627,0,0,1-1.306,1.151,5.291,5.291,0,0,1-1.564.717,4.534,4.534,0,0,1-1.686.129,3.357,3.357,0,0,1-1.618-.637,1.324,1.324,0,0,1,.072-1.895q.969-1.118,2.479-.113l.965.569a.771.771,0,0,0,.8.056,2.6,2.6,0,0,0,.61-.526,3.2,3.2,0,0,0,.815-1.712,3.946,3.946,0,0,0-.187-1.775,6.175,6.175,0,0,0-.889-1.675,8.6,8.6,0,0,0-1.27-1.391,6.066,6.066,0,0,0-3.867-1.782,4.056,4.056,0,0,0-3.935,4.841Z" transform="translate(0)" fill="#f9f9f9"/>
    <path d="M420.124,415.251a.531.531,0,0,1-.287-.037,1.777,1.777,0,0,1-.394-.262l-1.865-1.535a7.456,7.456,0,0,1,.448,2.969,3.274,3.274,0,0,1-.855,2.1,2.394,2.394,0,0,1-1.079.609,1.678,1.678,0,0,1-1.4-.27,1.717,1.717,0,0,1-.579-1.254,1.839,1.839,0,0,1,.588-1.289,2.571,2.571,0,0,1,1.94-.7l.2,0a8.117,8.117,0,0,0-.124-1.722,7.554,7.554,0,0,0-.6-1.817l-4.526-4.413a.747.747,0,0,0-1.027-.069l-.772.543q-.569.377-.943.011-.395-.384.112-.9l4.049-4.152q.506-.52.9-.135c.249.243.253.556.012.943l-.322.5a.759.759,0,0,0,.075,1l3.757,3.664.748.729q.332.324.6.547a3.446,3.446,0,0,1,.332.282c.1.095.2.2.312.3a.745.745,0,0,0,1.025.028l.548-.438q.528-.417.9-.052a.771.771,0,0,1,.113.922l-1.413,3.319a1.2,1.2,0,0,1-.261.433A.474.474,0,0,1,420.124,415.251Z" transform="translate(0)" fill="#f9f9f9"/>
    <path d="M401.087,425.1a.727.727,0,0,1,.171-1.019l6.222-5.657a5.916,5.916,0,0,0-3.617-2.082,4.489,4.489,0,0,0-4.38,2.748,5.191,5.191,0,0,0-.293,1.854.88.88,0,0,1-.216.667.422.422,0,0,1-.252.112q-.517.078-.671-.566a5.23,5.23,0,0,1,.088-3.136,6.8,6.8,0,0,1,1.94-2.824,7.163,7.163,0,0,1,2.506-1.533,5.955,5.955,0,0,1,2.591-.3,6.49,6.49,0,0,1,2.5.838,9.286,9.286,0,0,1,2.273,1.853,8.4,8.4,0,0,1,1.567,2.456,7.309,7.309,0,0,1,.568,2.717,6.582,6.582,0,0,1-.538,2.683,6.746,6.746,0,0,1-1.713,2.362,6.163,6.163,0,0,1-2.042,1.268,5.375,5.375,0,0,1-2.15.329,5.236,5.236,0,0,1-2.1-.582,6.69,6.69,0,0,1-1.9-1.486l-.3-.333A1.87,1.87,0,0,1,401.087,425.1Zm7.248-5.651-3.219,2.927a1.791,1.791,0,0,0-.748,1.268,1.852,1.852,0,0,0,.552,1.145,3.235,3.235,0,0,0,2.01,1.111,2.32,2.32,0,0,0,1.948-.594,2.683,2.683,0,0,0,.846-1.376,3.691,3.691,0,0,0,.023-1.57,5.763,5.763,0,0,0-.553-1.556A8.906,8.906,0,0,0,408.335,419.445Z" transform="translate(0)" fill="#f9f9f9"/>
    <path d="M385.893,430.051c-.006.053-.153.071-.44.053q-.489-.055-.518-.7a2.54,2.54,0,0,1,.224-1.346,3.185,3.185,0,0,1,.867-1.006,3.076,3.076,0,0,1,1.78-.769,2.6,2.6,0,0,1,1.578.469,9.971,9.971,0,0,1,.494-2.266,4.713,4.713,0,0,1,4.053-2.8,3.454,3.454,0,0,1,3.163,3.227,5.761,5.761,0,0,1-.359,2.065,10.378,10.378,0,0,1-.98,2q-.6.963-1.168,1.746l-.886,1.261.47.59a4.4,4.4,0,0,0,2.077,1.7,2.333,2.333,0,0,0,1.951-.645c.075-.061.148-.117.215-.172a1.441,1.441,0,0,0,.2-.194.758.758,0,0,0,.134-1l-.537-1.092q-.811-1.578.277-2.446a1.435,1.435,0,0,1,1-.33,1.4,1.4,0,0,1,.951.449,3.852,3.852,0,0,1,.271,3.157,6.875,6.875,0,0,1-2.442,3.242,4.647,4.647,0,0,1-3.467,1.277q-1.586-.221-3.409-2.511l-3.631-4.561q-.813-1.021-1.448-.515a1.085,1.085,0,0,0-.373.556.938.938,0,0,0-.051.356A.761.761,0,0,1,385.893,430.051Zm4.286-2.486,2.8,3.517q.436-.57.9-1.271a7.683,7.683,0,0,0,.753-1.452,4.03,4.03,0,0,0,.284-1.5,2.267,2.267,0,0,0-.531-1.413,1.994,1.994,0,0,0-1.423-.832,2.229,2.229,0,0,0-1.579.554,2.56,2.56,0,0,0-.706.858A7.2,7.2,0,0,0,390.179,427.565Z" transform="translate(0)" fill="#f9f9f9"/>
    <path d="M378.948,434.882a1.187,1.187,0,0,1-.348.461.519.519,0,0,1-.448.07.634.634,0,0,1-.491-.789,3.9,3.9,0,0,1,.567-1.526,4.88,4.88,0,0,1,1.354-1.374,3.67,3.67,0,0,1,2.5-.807,3.157,3.157,0,0,1,2.2,1.512l.4.555c.118.165.224.332.321.5l3.838,5.384a.641.641,0,0,0,1.012.169l.5-.353a.629.629,0,0,1,1,.146.684.684,0,0,1-.106,1l-.759.684a.793.793,0,0,0-.187.987l1.09,2.429a.709.709,0,0,1-.267.973l-.661.472a.629.629,0,0,1-.988-.187l-1.366-2.017a.641.641,0,0,0-1.012-.169l-1.629,1.161a.642.642,0,0,1-1.012-.169l-.1-.142a.64.64,0,0,1,.17-1.011l1.652-1.179a.641.641,0,0,0,.17-1.011l-4.259-5.974a2.27,2.27,0,0,0-1.234-1.008,1.4,1.4,0,0,0-1.156.254,2.352,2.352,0,0,0-.394.37A2.032,2.032,0,0,0,378.948,434.882Z" transform="translate(0)" fill="#f9f9f9"/>
    <path d="M369.6,447.733a.727.727,0,0,1,.345-.973l7.1-4.5a5.912,5.912,0,0,0-3.2-2.674,4.486,4.486,0,0,0-4.788,1.953,5.185,5.185,0,0,0-.608,1.776.879.879,0,0,1-.328.62.427.427,0,0,1-.267.066q-.524-.012-.564-.673a5.236,5.236,0,0,1,.626-3.074,6.8,6.8,0,0,1,2.4-2.447,7.164,7.164,0,0,1,2.732-1.079,5.943,5.943,0,0,1,2.6.153,6.453,6.453,0,0,1,2.325,1.257,9.312,9.312,0,0,1,1.92,2.217,8.371,8.371,0,0,1,1.12,2.688,7.323,7.323,0,0,1,.093,2.773,6.6,6.6,0,0,1-.993,2.552,6.733,6.733,0,0,1-2.095,2.031,6.159,6.159,0,0,1-2.229.9,5.366,5.366,0,0,1-2.175-.046,5.256,5.256,0,0,1-1.966-.935,6.674,6.674,0,0,1-1.615-1.791l-.241-.379A1.857,1.857,0,0,1,369.6,447.733Zm8.113-4.317-3.674,2.328q-.882.559-.955,1.121a1.848,1.848,0,0,0,.346,1.223,3.245,3.245,0,0,0,1.789,1.441,2.318,2.318,0,0,0,2.021-.251,2.669,2.669,0,0,0,1.07-1.21,3.682,3.682,0,0,0,.293-1.542,5.8,5.8,0,0,0-.276-1.628A8.886,8.886,0,0,0,377.711,443.416Z" transform="translate(0)" fill="#f9f9f9"/>
  </g>
  <g>
    <path d="M228.66,486.171a2.147,2.147,0,0,1,1.45.72,2.066,2.066,0,0,1-.329,2.881,2.146,2.146,0,0,1-1.575.374,2.107,2.107,0,0,1-1.421-.716,2.064,2.064,0,0,1,.328-2.881A2.118,2.118,0,0,1,228.66,486.171Zm.068-14.411a.756.756,0,0,0-.577-.824l-.48-.143a.69.69,0,0,1-.555-.764q.063-.548.783-.466l5.3.605q.722.082.658.631-.059.519-.738.586l-.589.05a.759.759,0,0,0-.749.673l-.582,5.1q-.066.576-.118,1.038t-.07.867a3.594,3.594,0,0,1-.024.465c-.017.152-.035.307-.052.461a.745.745,0,0,0,.606.828l.681.164c.436.11.633.336.594.682q-.053.46-.655.625l-3.9.928a2.216,2.216,0,0,1-.27.056.957.957,0,0,1-.233,0,.315.315,0,0,1-.221-.113.9.9,0,0,1-.123-.714l.461-3.274Z" transform="translate(0)" fill="#f9f9f9"/>
    <path d="M204.388,467.6a.758.758,0,0,0-.513-.866l-.491-.211a.654.654,0,0,1-.5-.775q.1-.542.816-.406l5.213,1c.475.09.677.316.609.677q-.1.512-.781.53h-.62a.759.759,0,0,0-.8.615l-1.187,6.21a4.545,4.545,0,0,0,.03,2.545,1.739,1.739,0,0,0,1.359,1,3.407,3.407,0,0,0,1.728-.157,9.476,9.476,0,0,0,1.9-.892c.014-.174.035-.363.063-.564s.063-.406.1-.615l1.247-6.523a.758.758,0,0,0-.513-.866l-.491-.211a.652.652,0,0,1-.5-.775c.068-.362.34-.5.815-.405l5.212,1c.476.091.678.317.609.678q-.1.513-.78.529l-.592,0a.76.76,0,0,0-.8.616l-1.187,6.21a4.661,4.661,0,0,0,.019,2.527,1.686,1.686,0,0,0,1.342,1.01,3.463,3.463,0,0,0,1.739-.14,9.18,9.18,0,0,0,1.881-.88l1.476-7.72a.758.758,0,0,0-.513-.866l-.468-.178a.69.69,0,0,1-.5-.8c.069-.362.341-.5.815-.407l5.242,1c.474.092.677.317.608.678-.066.342-.325.519-.78.53h-.62a.76.76,0,0,0-.8.616l-.986,5.156q-.108.568-.2,1.025c-.058.3-.1.572-.124.8a3.4,3.4,0,0,1-.053.433c-.025.132-.052.275-.082.427a.746.746,0,0,0,.542.872l.7.221c.426.141.606.381.541.723a.772.772,0,0,1-.706.6l-3.549.651a1.261,1.261,0,0,1-.535.015.334.334,0,0,1-.217-.1.807.807,0,0,1-.131-.7l.174-1.68a7.828,7.828,0,0,1-2.457,1.42,4.984,4.984,0,0,1-2.569.159A3.922,3.922,0,0,1,212,480.3a3.526,3.526,0,0,1-.889-2.149,7.673,7.673,0,0,1-2.572,1.487,5.487,5.487,0,0,1-2.692.105,3.376,3.376,0,0,1-2.5-1.645,5.875,5.875,0,0,1-.226-3.837Z" transform="translate(0)" fill="#f9f9f9"/>
    <path d="M194,476.572a.805.805,0,0,1-.065-.714l.232-1.11a6.58,6.58,0,0,1-2.26.868,5.148,5.148,0,0,1-2.292-.167,4.619,4.619,0,0,1-2.193-1.287,5.251,5.251,0,0,1-1.148-2.024,7.208,7.208,0,0,1-.292-2.425,10.474,10.474,0,0,1,.4-2.481,10.018,10.018,0,0,1,1.067-2.423,7.089,7.089,0,0,1,1.673-1.914,5.616,5.616,0,0,1,2.212-1.065,5.166,5.166,0,0,1,2.652.122,4.84,4.84,0,0,1,3.064,2.551l.437-1.5q.234-.808.5-1.773t.5-1.864a.709.709,0,0,0-.394-.929l-.918-.479a.653.653,0,0,1-.427-.818c.1-.354.386-.462.85-.327l5.626,1.633q.7.2.542.733a.691.691,0,0,1-.807.49l-.681-.047a.735.735,0,0,0-.831.573q-.286.884-.579,1.84t-.537,1.792l-2.16,7.436q-.161.556-.291,1c-.086.3-.152.559-.2.788a3.593,3.593,0,0,1-.094.426c-.038.128-.078.268-.121.418a.743.743,0,0,0,.458.917l.644.278q.617.27.471.771a.776.776,0,0,1-.76.535l-3.567.323a1.209,1.209,0,0,1-.5-.028A.508.508,0,0,1,194,476.572Zm.316-2.959,2.257-7.769a4.327,4.327,0,0,0-2.274-1.839,2.958,2.958,0,0,0-2.674.522,6.325,6.325,0,0,0-2.017,3.46,7.433,7.433,0,0,0-.29,4.068,2.6,2.6,0,0,0,1.818,1.9A5.191,5.191,0,0,0,194.319,473.613Z" transform="translate(0)" fill="#f9f9f9"/>
    <path d="M181.445,460.512a.711.711,0,0,0-.341-.951l-.537-.313a.652.652,0,0,1-.38-.84c.123-.347.412-.439.867-.279l5.224,1.842c.456.16.623.414.5.759-.115.329-.4.464-.851.409l-.64-.1a.712.712,0,0,0-.862.527q-.334.865-.658,1.736t-.631,1.745l-3.682,10.449a.684.684,0,0,0,.378.932l.782.4q.6.3.427.8a.715.715,0,0,1-.833.444l-3.938-.342a.663.663,0,0,1-.252-.028c-.063-.021-.132-.047-.205-.072-.127-.045-.2-.092-.227-.141-.084-.112-.061-.349.067-.714l1.2-3.144,3.384-9.6q.309-.875.6-1.754T181.445,460.512Z" transform="translate(0)" fill="#f9f9f9"/>
    <path d="M164.509,459.711a.728.728,0,0,1,.994-.281l7.774,3.209a5.918,5.918,0,0,0,.336-4.16,4.483,4.483,0,0,0-4.357-2.786,5.168,5.168,0,0,0-1.8.528.88.88,0,0,1-.7.089.432.432,0,0,1-.208-.181c-.195-.289-.119-.572.224-.848a5.24,5.24,0,0,1,2.874-1.261,6.787,6.787,0,0,1,3.381.548,7.146,7.146,0,0,1,2.458,1.61,5.941,5.941,0,0,1,1.376,2.215,6.466,6.466,0,0,1,.313,2.623,9.311,9.311,0,0,1-.7,2.847,8.4,8.4,0,0,1-1.551,2.465A7.31,7.31,0,0,1,172.71,468a6.6,6.6,0,0,1-2.657.66,6.75,6.75,0,0,1-2.867-.539,6.153,6.153,0,0,1-2.019-1.305,5.37,5.37,0,0,1-1.217-1.8,5.245,5.245,0,0,1-.369-2.146,6.661,6.661,0,0,1,.531-2.352c.059-.144.117-.282.172-.416A1.8,1.8,0,0,1,164.509,459.711Zm8.205,4.139-4.021-1.661a1.783,1.783,0,0,0-1.466-.133,1.845,1.845,0,0,0-.8.987,3.239,3.239,0,0,0-.146,2.293,2.316,2.316,0,0,0,1.37,1.506,2.681,2.681,0,0,0,1.606.177,3.711,3.711,0,0,0,1.429-.65,5.758,5.758,0,0,0,1.17-1.164A8.915,8.915,0,0,0,172.714,463.85Z" transform="translate(0)" fill="#f9f9f9"/>
    <path d="M145.769,444.045a.759.759,0,0,0-.242-.977l-.409-.344a.654.654,0,0,1-.257-.887q.257-.487.9-.152l4.7,2.458c.428.223.558.5.387.824q-.242.462-.9.281l-.594-.179a.759.759,0,0,0-.94.36l-2.928,5.6a4.546,4.546,0,0,0-.705,2.446,1.735,1.735,0,0,0,1.014,1.347,3.418,3.418,0,0,0,1.7.349,9.606,9.606,0,0,0,2.075-.307q.094-.246.223-.521c.085-.185.177-.371.276-.56l3.076-5.886a.759.759,0,0,0-.243-.977l-.408-.345a.653.653,0,0,1-.257-.887q.255-.488.9-.152l4.7,2.458q.644.336.388.824c-.162.308-.461.4-.9.283l-.568-.166a.759.759,0,0,0-.941.359l-2.927,5.6a4.656,4.656,0,0,0-.712,2.426,1.692,1.692,0,0,0,.994,1.354,3.459,3.459,0,0,0,1.706.367,9.152,9.152,0,0,0,2.055-.3l3.639-6.966a.756.756,0,0,0-.241-.976l-.4-.306a.69.69,0,0,1-.243-.913c.17-.325.47-.375.9-.152l4.73,2.471q.642.336.387.824-.242.464-.9.283l-.594-.18a.76.76,0,0,0-.94.359l-2.431,4.653-.483.926c-.143.273-.26.518-.351.732a3.386,3.386,0,0,1-.175.4l-.2.386a.745.745,0,0,0,.268.99l.6.413c.368.257.47.54.309.849a.773.773,0,0,1-.85.374l-3.585-.4a1.3,1.3,0,0,1-.517-.139c-.1-.055-.162-.107-.179-.159a.8.8,0,0,1,.078-.712l.65-1.559a7.875,7.875,0,0,1-2.761.652,5,5,0,0,1-2.506-.589,3.924,3.924,0,0,1-1.748-1.6,3.509,3.509,0,0,1-.231-2.312,7.7,7.7,0,0,1-2.892.681,5.513,5.513,0,0,1-2.608-.675,3.382,3.382,0,0,1-1.925-2.3,5.872,5.872,0,0,1,.891-3.738Z" transform="translate(0)" fill="#f9f9f9"/>
    <path d="M129.525,440.15a.73.73,0,0,1,1.029-.1l7.074,4.549a5.916,5.916,0,0,0,1.075-4.032,4.486,4.486,0,0,0-3.786-3.521,5.2,5.2,0,0,0-1.868.2.874.874,0,0,1-.7-.036.429.429,0,0,1-.173-.214c-.139-.32-.014-.584.373-.8a5.248,5.248,0,0,1,3.053-.726,6.816,6.816,0,0,1,3.229,1.145,7.138,7.138,0,0,1,2.129,2.025,5.934,5.934,0,0,1,.957,2.424,6.476,6.476,0,0,1-.161,2.638,9.3,9.3,0,0,1-1.2,2.674,8.343,8.343,0,0,1-1.967,2.148,7.31,7.31,0,0,1-2.477,1.252,6.6,6.6,0,0,1-2.733.174,6.751,6.751,0,0,1-2.724-1.045,6.165,6.165,0,0,1-1.753-1.644,5.362,5.362,0,0,1-.873-1.993,5.267,5.267,0,0,1,.02-2.175,6.709,6.709,0,0,1,.945-2.221q.124-.195.243-.377A1.874,1.874,0,0,1,129.525,440.15Zm7.332,5.542L133.2,443.34a1.783,1.783,0,0,0-1.419-.395,1.86,1.86,0,0,0-.964.828,3.24,3.24,0,0,0-.553,2.23,2.312,2.312,0,0,0,1.078,1.727,2.651,2.651,0,0,0,1.548.461,3.685,3.685,0,0,0,1.522-.382,5.77,5.77,0,0,0,1.36-.936A8.865,8.865,0,0,0,136.857,445.692Z" transform="translate(0)" fill="#f9f9f9"/>
    <path d="M120.191,426.393a.759.759,0,0,0-.082-1l-.342-.366a.689.689,0,0,1-.094-.939q.332-.441.911-.006l4.271,3.2q.581.435.25.876a.653.653,0,0,1-.911.152l-.533-.254a.758.758,0,0,0-.986.2l-3.789,5.06a5.338,5.338,0,0,0-1.15,2.237,1.6,1.6,0,0,0,.776,1.506,3.657,3.657,0,0,0,1.642.685,8.3,8.3,0,0,0,2.187.007l4.676-6.245a.76.76,0,0,0-.082-1l-.349-.405a.654.654,0,0,1-.111-.917q.33-.441.911-.007L131.7,432.4c.387.29.471.581.251.876-.209.279-.519.323-.934.134l-.557-.272a.757.757,0,0,0-.986.2l-3.146,4.2-.626.836c-.185.246-.34.47-.464.666a3.175,3.175,0,0,1-.237.366l-.261.349a.744.744,0,0,0,.106,1.02l.5.487q.481.469.168.887a.773.773,0,0,1-.9.233l-3.476-.971a1.284,1.284,0,0,1-.487-.221.332.332,0,0,1-.15-.185.8.8,0,0,1,.19-.691l.909-1.456a8.369,8.369,0,0,1-2.925.182,5.194,5.194,0,0,1-2.416-1.03,3.487,3.487,0,0,1-1.595-2.662,6.105,6.105,0,0,1,1.537-3.648Z" transform="translate(0)" fill="#f9f9f9"/>
    <path d="M112.474,419.672a1.18,1.18,0,0,1-.534-.223.517.517,0,0,1-.178-.416.634.634,0,0,1,.642-.672,3.925,3.925,0,0,1,1.62.172,4.919,4.919,0,0,1,1.666.972,3.683,3.683,0,0,1,1.4,2.227,3.161,3.161,0,0,1-.921,2.506c-.162.193-.309.366-.441.522a5.814,5.814,0,0,1-.405.435l-4.267,5.051a.641.641,0,0,0,.086,1.022l.464.392a.628.628,0,0,1,.106,1,.684.684,0,0,1-1,.145l-.851-.567a.8.8,0,0,0-1,.065l-2.083,1.656a.71.71,0,0,1-1.01-.018l-.621-.524a.629.629,0,0,1-.063-1l1.616-1.823a.64.64,0,0,0-.086-1.022l-1.528-1.292a.64.64,0,0,1-.086-1.021l.112-.133a.643.643,0,0,1,1.023-.086l1.549,1.311a.643.643,0,0,0,1.023-.086l4.734-5.605a2.263,2.263,0,0,0,.671-1.446,1.4,1.4,0,0,0-.531-1.056,2.435,2.435,0,0,0-.456-.291A2.092,2.092,0,0,0,112.474,419.672Z" transform="translate(0)" fill="#f9f9f9"/>
    <path d="M84.217,407.9q-.5-.519-.089-.924a.68.68,0,0,1,.965-.047l.426.313a.975.975,0,0,0,1,.076l10.63-4.706a.825.825,0,0,1,.982.178l.061.063a.822.822,0,0,1,.15.987L94.3,412.371l8.688-3.75a.824.824,0,0,1,.982.178l.06.062a.825.825,0,0,1,.151.988l-5.077,10.59a.93.93,0,0,0,.088,1.006l.161.207a.655.655,0,0,1-.035.964c-.276.269-.584.232-.921-.116l-3.636-3.744q-.505-.52-.089-.924a.656.656,0,0,1,.964-.007l.344.272a.75.75,0,0,0,.581.182.578.578,0,0,0,.427-.393l3.42-6.718-6.976,3.057q-.723.337-.26.98l.22.311a.655.655,0,0,1-.034.963q-.416.405-.922-.116l-3.334-3.431c-.335-.347-.366-.656-.088-.924a.656.656,0,0,1,.963-.008l.285.21q.649.461.988-.231l3.195-6.784L87.8,408.339a.593.593,0,0,0-.261.98l.321.456a.713.713,0,0,1-.054.984q-.417.4-.922-.116Z" transform="translate(0)" fill="#f9f9f9"/>
    <path d="M82.864,388.576a.758.758,0,0,0,.162-.994l-.244-.436a.691.691,0,0,1,.135-.935q.427-.348.886.213L87.2,390.58q.459.563.032.91c-.27.22-.582.188-.939-.1l-.475-.4a.759.759,0,0,0-1-.039l-4.9,4a5.175,5.175,0,0,0-1.645,1.906,1.634,1.634,0,0,0,.4,1.659,3.857,3.857,0,0,0,1.427,1.081,7.072,7.072,0,0,0,2.163.517l6-4.9a.71.71,0,0,0,.2-.99l-.244-.436a.691.691,0,0,1,.136-.935c.284-.232.58-.161.884.213l3.375,4.134q.459.561.033.91c-.27.219-.582.188-.939-.1l-.457-.375a.759.759,0,0,0-1.006-.041l-11.478,9.374a.683.683,0,0,0-.162.994l.46.746c.236.382.219.681-.05.9a.705.705,0,0,1-.924-.031l-3.167-2.319a.67.67,0,0,1-.2-.155l-.138-.169a.382.382,0,0,1-.12-.238c-.014-.139.13-.33.429-.574l2.661-2.061,3.683-3.008a8.483,8.483,0,0,1-2.89-.56,5.3,5.3,0,0,1-2.086-1.592,3.484,3.484,0,0,1-.906-2.967,6.11,6.11,0,0,1,2.371-3.171Z" transform="translate(0)" fill="#f9f9f9"/>
    <path d="M73.714,375.623c-.054-.01-.063-.156-.027-.441.055-.325.3-.483.726-.479a2.547,2.547,0,0,1,1.332.3,3.19,3.19,0,0,1,.954.923,3.073,3.073,0,0,1,.665,1.821,2.59,2.59,0,0,1-.557,1.548,10.017,10.017,0,0,1,2.233.623,4.2,4.2,0,0,1,1.727,1.516,4.16,4.16,0,0,1,.837,2.692,3.455,3.455,0,0,1-3.4,2.972,5.773,5.773,0,0,1-2.041-.476,10.443,10.443,0,0,1-1.944-1.094q-.925-.658-1.676-1.266l-1.208-.957-.616.435a4.417,4.417,0,0,0-1.818,1.976,2.331,2.331,0,0,0,.533,1.985q.082.119.159.225a1.494,1.494,0,0,0,.182.209.757.757,0,0,0,.987.189l1.122-.472q1.621-.719,2.425.417a1.426,1.426,0,0,1,.272,1.014,1.4,1.4,0,0,1-.5.924,3.854,3.854,0,0,1-3.167.09,6.882,6.882,0,0,1-3.1-2.625,4.653,4.653,0,0,1-1.078-3.535q.312-1.569,2.7-3.26l4.762-3.362q1.065-.753.6-1.416a1.092,1.092,0,0,0-.533-.4.977.977,0,0,0-.353-.071A.709.709,0,0,1,73.714,375.623Zm2.235,4.421-3.671,2.594q.544.467,1.217.968a7.691,7.691,0,0,0,1.406.835,4.05,4.05,0,0,0,1.487.371,2.258,2.258,0,0,0,1.44-.45,1.987,1.987,0,0,0,.912-1.372,2.228,2.228,0,0,0-.462-1.609,2.561,2.561,0,0,0-.816-.754A7.2,7.2,0,0,0,75.949,380.044Z" transform="translate(0)" fill="#f9f9f9"/>
    <path d="M66.393,363.717a1.23,1.23,0,0,0,.087-.971l-.268-.72a.69.69,0,0,1,.262-.907q.471-.287.848.332L69,364.2a.987.987,0,0,1,.031,1l-3.342,6.385,2.178.508q.594-.363,1.231-.768c.424-.269.85-.536,1.279-.8a.776.776,0,0,0,.321-.978l-.232-.6q-.224-.645.222-.917.471-.286.848.332l2.9,4.754c.251.414.22.715-.094.907q-.445.272-.916-.223l-.432-.485a.711.711,0,0,0-1-.136q-.805.459-1.643.952c-.559.329-1.076.639-1.556.931l-9.459,5.767a.683.683,0,0,0-.3.961l.354.8q.273.615-.173.887a.708.708,0,0,1-.911-.158l-2.82-2.73a.691.691,0,0,1-.177-.181l-.114-.185a.416.416,0,0,1-.087-.253q.009-.21.5-.512l2.918-1.676,7.874-4.8-5.764-1.377a.634.634,0,0,0-.636.1.5.5,0,0,0-.036.583l.147.352a.655.655,0,0,1-.247.931q-.5.3-.873-.316l-2.566-4.21q-.377-.62.118-.921a.655.655,0,0,1,.941.207l.913,1.108a1.8,1.8,0,0,0,.785.506l3.538.9Z" transform="translate(0)" fill="#f9f9f9"/>
    <path d="M59.183,350.088c-.052-.017-.041-.164.031-.442q.147-.469.785-.376a2.55,2.55,0,0,1,1.279.478,3.185,3.185,0,0,1,.822,1.045,3.063,3.063,0,0,1,.413,1.893,2.6,2.6,0,0,1-.761,1.459,10.073,10.073,0,0,1,2.13.917,4.208,4.208,0,0,1,1.507,1.734,4.155,4.155,0,0,1,.466,2.781,3.449,3.449,0,0,1-3.772,2.487,5.751,5.751,0,0,1-1.958-.746,10.461,10.461,0,0,1-1.779-1.345q-.831-.779-1.491-1.481l-1.069-1.111-.668.348a4.4,4.4,0,0,0-2.067,1.714,2.326,2.326,0,0,0,.261,2.038l.126.245a1.472,1.472,0,0,0,.154.231.755.755,0,0,0,.952.321l1.175-.317q1.7-.5,2.346.74a1.421,1.421,0,0,1,.134,1.041,1.4,1.4,0,0,1-.621.848,3.852,3.852,0,0,1-3.151-.338,6.863,6.863,0,0,1-2.715-3.017,4.653,4.653,0,0,1-.592-3.648q.521-1.514,3.118-2.866l5.17-2.692q1.159-.6.783-1.322a1.094,1.094,0,0,0-.474-.473.927.927,0,0,0-.34-.117A.821.821,0,0,1,59.183,350.088Zm1.62,4.682-3.988,2.076q.477.535,1.076,1.123a7.721,7.721,0,0,0,1.281,1.017,4.058,4.058,0,0,0,1.424.567,2.251,2.251,0,0,0,1.487-.252,1.989,1.989,0,0,0,1.089-1.237,2.238,2.238,0,0,0-.241-1.656,2.574,2.574,0,0,0-.708-.857A7.235,7.235,0,0,0,60.8,354.77Z" transform="translate(0)" fill="#f9f9f9"/>
    <path d="M53.108,336.574a.758.758,0,0,0,.426-.912l-.116-.487a.692.692,0,0,1,.385-.863q.506-.218.794.446l2.124,4.9q.288.664-.217.884a.652.652,0,0,1-.866-.32l-.337-.486a.761.761,0,0,0-.958-.312l-5.8,2.517a5.305,5.305,0,0,0-2.107,1.372A1.6,1.6,0,0,0,46.363,345a3.666,3.666,0,0,0,1.086,1.41,8.217,8.217,0,0,0,1.9,1.09l7.157-3.1a.76.76,0,0,0,.426-.913l-.1-.524a.655.655,0,0,1,.359-.852q.5-.219.794.447l2.146,4.948q.288.664-.217.885-.479.207-.877-.347l-.348-.513a.762.762,0,0,0-.958-.312l-4.816,2.09-.957.416q-.426.184-.733.349a3.7,3.7,0,0,1-.388.2l-.4.173a.744.744,0,0,0-.414.938l.2.674q.184.647-.294.853a.771.771,0,0,1-.9-.243L46.489,350.1a1.3,1.3,0,0,1-.314-.433.337.337,0,0,1-.039-.236q.04-.27.508-.5l1.512-.814a8.363,8.363,0,0,1-2.632-1.293,5.185,5.185,0,0,1-1.587-2.092,3.484,3.484,0,0,1-.065-3.1,6.1,6.1,0,0,1,3.144-2.407Z" transform="translate(0)" fill="#f9f9f9"/>
    <path d="M37.44,324.887l.575-.2a.64.64,0,0,1,.924.443l.655,1.86a4.228,4.228,0,0,1,2-1.38,4.382,4.382,0,0,1,2.046-.258,4.162,4.162,0,0,1,1.725.623,4.91,4.91,0,0,1,1.356,1.321,7.385,7.385,0,0,1,.928,1.81,6.713,6.713,0,0,1,.409,2.04,4.063,4.063,0,0,0,.667.1,1.587,1.587,0,0,0,.626-.1,1.057,1.057,0,0,0,.723-.7,2.456,2.456,0,0,0-.18-1.428l-.98-2.79a6.288,6.288,0,0,1-.421-3.864,2.957,2.957,0,0,1,1.96-1.9,3.627,3.627,0,0,1,2.452-.063,5.455,5.455,0,0,1,2.029,1.27,8.987,8.987,0,0,1,1.547,2.038,14,14,0,0,1,1.022,2.208,8.447,8.447,0,0,1,.658,4.41,2.347,2.347,0,0,1-1.572,2,2.389,2.389,0,0,1-1.68-.056,6.043,6.043,0,0,1-1.957-1.371,2.667,2.667,0,0,1-.56,1.426,2.505,2.505,0,0,1-2.66.781,6.347,6.347,0,0,1-1.73-.9,4.254,4.254,0,0,1-.925,2.047,4.418,4.418,0,0,1-1.982,1.311,4.337,4.337,0,0,1-2.019.249,4.172,4.172,0,0,1-1.726-.624,5.129,5.129,0,0,1-1.365-1.3,6.857,6.857,0,0,1-.936-1.791,5.866,5.866,0,0,1-.172-3.813l-1.752-2.274a2.065,2.065,0,0,1-.169-.217,1,1,0,0,1-.105-.209.357.357,0,0,1,.117-.456A1.964,1.964,0,0,1,37.44,324.887Zm9.1,4.64a2.163,2.163,0,0,0-1.482-1.462,5.031,5.031,0,0,0-4.656,1.622,2.288,2.288,0,0,0,1.23,3.456,5.236,5.236,0,0,0,4.656-1.622A2.03,2.03,0,0,0,46.541,329.527Zm5.025-3.979,1.01,2.872a7.144,7.144,0,0,1,.238.808q.084.371.135.69a3.273,3.273,0,0,0,2.064.013,1.93,1.93,0,0,0,1.425-1.454,4.7,4.7,0,0,0-.3-2.416,6.292,6.292,0,0,0-1.814-2.929,2.1,2.1,0,0,0-2.039-.513,1.456,1.456,0,0,0-.912.9,2.114,2.114,0,0,0-.092.831A4.675,4.675,0,0,0,51.566,325.548Z" transform="translate(0)" fill="#f9f9f9"/>
    <path d="M29.412,315.645,31,315.2l1.761,6.282-1.592.447Zm18.057-4.67-1.649.672.024.084a5.231,5.231,0,0,1,3.169,3.569,4,4,0,0,1-2.724,5.221c-3.267.916-5.868-1.487-7.3-6.716l-.279.078c-1.117.313-3.041,1.183-2.267,3.948a6.992,6.992,0,0,0,1.993,3.236l-1.463,1.013a8.7,8.7,0,0,1-2.446-4.1c-1.159-4.133,1.38-5.929,4.088-6.688l5.055-1.417a19.741,19.741,0,0,0,3.176-1.131Zm-6.8,2.3c.7,2.7,2.023,5.607,4.648,4.871a2.259,2.259,0,0,0,1.7-2.975,3.494,3.494,0,0,0-3.178-2.633,2.652,2.652,0,0,0-.821.08Z" transform="translate(0)" fill="#f9f9f9"/>
    <path d="M28.649,221.221a.537.537,0,0,1,.256-.138,1.869,1.869,0,0,1,.472-.016l2.41.162a7.482,7.482,0,0,1-2.093-2.152,3.28,3.28,0,0,1-.529-2.207,2.387,2.387,0,0,1,.523-1.123,1.674,1.674,0,0,1,1.293-.6,1.721,1.721,0,0,1,1.2.682,1.835,1.835,0,0,1,.271,1.391,2.564,2.564,0,0,1-1.168,1.7l-.165.122a8.112,8.112,0,0,0,1.1,1.327A7.572,7.572,0,0,0,33.77,221.5l6.25.951a.747.747,0,0,0,.875-.541l.311-.891q.244-.638.76-.56c.363.056.509.323.435.8l-.873,5.734q-.108.717-.653.634-.516-.078-.559-.76l-.028-.591a.759.759,0,0,0-.644-.773l-5.19-.789-1.032-.157c-.306-.047-.574-.078-.807-.094a3.346,3.346,0,0,1-.434-.037l-.43-.065a.745.745,0,0,0-.851.575l-.19.674c-.125.431-.358.62-.7.568a.772.772,0,0,1-.629-.682l-.784-3.522a1.209,1.209,0,0,1-.04-.5A.475.475,0,0,1,28.649,221.221Z" transform="translate(0)" fill="#f9f9f9"/>
    <path d="M38.405,202.114a.726.726,0,0,1,.453.928l-1.768,8.222a5.917,5.917,0,0,0,4.152-.412,4.486,4.486,0,0,0,1.963-4.784,5.156,5.156,0,0,0-.84-1.678.879.879,0,0,1-.212-.669.432.432,0,0,1,.14-.237q.375-.363.875.07a5.244,5.244,0,0,1,1.754,2.6,6.808,6.808,0,0,1,.064,3.425,7.162,7.162,0,0,1-1.145,2.705,5.941,5.941,0,0,1-1.935,1.75,6.474,6.474,0,0,1-2.525.776,9.275,9.275,0,0,1-2.926-.185,8.347,8.347,0,0,1-2.7-1.085,7.337,7.337,0,0,1-2.044-1.878,6.624,6.624,0,0,1-1.124-2.5,6.76,6.76,0,0,1,.02-2.917,6.19,6.19,0,0,1,.922-2.22,5.379,5.379,0,0,1,1.558-1.518,5.229,5.229,0,0,1,2.045-.747,6.675,6.675,0,0,1,2.41.1l.44.095A1.828,1.828,0,0,1,38.405,202.114ZM35.8,210.926l.914-4.252a1.786,1.786,0,0,0-.129-1.466,1.845,1.845,0,0,0-1.114-.611,3.241,3.241,0,0,0-2.282.265,2.325,2.325,0,0,0-1.239,1.617,2.665,2.665,0,0,0,.114,1.612,3.709,3.709,0,0,0,.894,1.29,5.786,5.786,0,0,0,1.355.944A8.76,8.76,0,0,0,35.8,210.926Z" transform="translate(0)" fill="#f9f9f9"/>
    <path d="M45.591,196.753a.711.711,0,0,0,.923-.411l.27-.558a.654.654,0,0,1,.812-.441q.531.144.341.844l-1.448,5.346q-.189.7-.72.556-.5-.137-.47-.818l.055-.646a.711.711,0,0,0-.589-.821q-.888-.27-1.781-.527t-1.787-.5l-10.693-2.9a.684.684,0,0,0-.9.447l-.339.809q-.26.621-.763.485t-.5-.8l.049-3.953a.681.681,0,0,1,.009-.253c.017-.065.036-.135.056-.21a.412.412,0,0,1,.124-.237c.106-.091.345-.087.718.015l3.225.963L42,195.811q.9.242,1.8.471T45.591,196.753Z" transform="translate(0)" fill="#f9f9f9"/>
    <path d="M50.5,181.55q-.038-.074.338-.286.438-.224.817.3a2.531,2.531,0,0,1,.553,1.248,3.18,3.18,0,0,1-.171,1.317,3.066,3.066,0,0,1-1.063,1.62,2.59,2.59,0,0,1-1.575.477,10.038,10.038,0,0,1,.833,2.164,4.716,4.716,0,0,1-1.843,4.569A3.452,3.452,0,0,1,43.976,192a5.739,5.739,0,0,1-.836-1.92,10.469,10.469,0,0,1-.285-2.213q-.024-1.137.016-2.1l.046-1.541-.717-.235a4.409,4.409,0,0,0-2.67-.278,2.331,2.331,0,0,0-1.274,1.613l-.086.262a1.429,1.429,0,0,0-.058.27.756.756,0,0,0,.436.906l1.05.617q1.545.871,1.113,2.195a1.424,1.424,0,0,1-.651.824,1.4,1.4,0,0,1-1.04.149,3.851,3.851,0,0,1-1.963-2.488,6.87,6.87,0,0,1,.255-4.05,4.654,4.654,0,0,1,2.193-2.975q1.446-.687,4.229.222l5.54,1.811q1.242.405,1.494-.366a1.087,1.087,0,0,0,0-.67.917.917,0,0,0-.153-.325A.711.711,0,0,1,50.5,181.55Zm-2.212,4.433-4.272-1.4c-.035.477-.051,1-.051,1.555a7.723,7.723,0,0,0,.17,1.627,4.055,4.055,0,0,0,.59,1.413,2.269,2.269,0,0,0,1.221.887,1.992,1.992,0,0,0,1.646-.088,2.229,2.229,0,0,0,1.014-1.331,2.585,2.585,0,0,0,.118-1.106A7.26,7.26,0,0,0,48.292,185.983Z" transform="translate(0)" fill="#f9f9f9"/>
    <path d="M55.17,170.054a1.047,1.047,0,0,0,.447-.18,1.468,1.468,0,0,0,.339-.379l.345-.549a.691.691,0,0,1,.884-.334q.51.206.242.877l-2.038,5.089q-.27.673-.782.468a.652.652,0,0,1-.381-.84l.015-.119a.672.672,0,0,0-.129-.613.563.563,0,0,0-.581-.108l-3.56.7,2,3.113a.635.635,0,0,0,.484.351.589.589,0,0,0,.507-.328l.15-.221a.654.654,0,0,1,.857-.345q.512.206.242.878l-1.445,3.608q-.27.673-.781.468c-.323-.13-.447-.418-.371-.867l.156-.781a1.217,1.217,0,0,0-.145-.964l-2.884-4.654-6.069,1.348a1.094,1.094,0,0,0-.787.56l-.238.437a.654.654,0,0,1-.893.36q-.54-.216-.269-.889l1.887-4.711q.27-.672.808-.457a.667.667,0,0,1,.424.888.468.468,0,0,0,.127.5.726.726,0,0,0,.612.073l3.274-.688L45.8,168.892a.8.8,0,0,0-.483-.395.391.391,0,0,0-.444.211l-.032.082a.67.67,0,0,1-.921.35q-.537-.217-.269-.889l1.219-3.043c.179-.447.448-.6.808-.457a.714.714,0,0,1,.425.889l-.1.49a1.211,1.211,0,0,0,.146.963l2.669,4.412Z" transform="translate(0)" fill="#f9f9f9"/>
    <path d="M64.748,150.16q-.026-.078.379-.229c.312-.1.565.042.76.423a2.543,2.543,0,0,1,.348,1.322,3.171,3.171,0,0,1-.378,1.272,3.071,3.071,0,0,1-1.307,1.432,2.6,2.6,0,0,1-1.63.221,10.037,10.037,0,0,1,.479,2.268,4.72,4.72,0,0,1-2.545,4.219,3.452,3.452,0,0,1-4.209-1.645,5.761,5.761,0,0,1-.522-2.029,10.44,10.44,0,0,1,.071-2.23q.156-1.125.349-2.072l.29-1.513-.671-.345a4.408,4.408,0,0,0-2.593-.7,2.331,2.331,0,0,0-1.513,1.389c-.045.086-.086.167-.126.245a1.429,1.429,0,0,0-.1.258.758.758,0,0,0,.287.963l.938.777q1.387,1.106.751,2.343a1.428,1.428,0,0,1-.774.711,1.4,1.4,0,0,1-1.05-.019,3.858,3.858,0,0,1-1.544-2.768,6.879,6.879,0,0,1,.9-3.958,4.65,4.65,0,0,1,2.637-2.589q1.536-.45,4.14.891l5.183,2.667q1.16.6,1.532-.125a1.081,1.081,0,0,0,.112-.66.94.94,0,0,0-.1-.345A.727.727,0,0,1,64.748,150.16Zm-2.887,4.027-4-2.058q-.163.7-.3,1.527a7.713,7.713,0,0,0-.089,1.633,4,4,0,0,0,.358,1.489,2.263,2.263,0,0,0,1.064,1.071,1.992,1.992,0,0,0,1.639.173,2.228,2.228,0,0,0,1.213-1.152,2.581,2.581,0,0,0,.291-1.073A7.193,7.193,0,0,0,61.861,154.187Z" transform="translate(0)" fill="#f9f9f9"/>
    <path d="M72.271,137.4a.758.758,0,0,0,.991-.178l.33-.376a.692.692,0,0,1,.927-.185c.313.192.344.493.094.906l-2.77,4.561c-.25.414-.532.524-.847.334a.654.654,0,0,1-.239-.892l.2-.555a.76.76,0,0,0-.3-.962l-5.4-3.281a5.33,5.33,0,0,0-2.338-.928,1.6,1.6,0,0,0-1.422.918,3.67,3.67,0,0,0-.524,1.7,8.27,8.27,0,0,0,.2,2.178l6.668,4.049a.76.76,0,0,0,.991-.179l.37-.386a.652.652,0,0,1,.9-.2q.471.285.094.905l-2.8,4.611q-.377.619-.847.334-.447-.271-.224-.917l.217-.581a.759.759,0,0,0-.3-.961l-4.486-2.724-.893-.542c-.264-.16-.5-.293-.709-.4a3.491,3.491,0,0,1-.387-.2l-.372-.225a.744.744,0,0,0-1.006.2l-.435.55q-.42.525-.866.253a.769.769,0,0,1-.319-.872l.63-3.552a1.287,1.287,0,0,1,.172-.506c.061-.1.117-.155.17-.169a.808.808,0,0,1,.706.123l1.537.765a8.357,8.357,0,0,1-.464-2.9,5.2,5.2,0,0,1,.791-2.5,3.486,3.486,0,0,1,2.494-1.845A6.109,6.109,0,0,1,66.6,133.95Z" transform="translate(0)" fill="#f9f9f9"/>
    <path d="M81.2,124.581a.743.743,0,0,0,1.025-.089l.448-.429q.505-.458.931-.155t.067.9l-1.754,2.809a.689.689,0,0,1-.974.267l-.918-.512a6.322,6.322,0,0,1,.119,2.257,4.827,4.827,0,0,1-.907,2.1,4.942,4.942,0,0,1-1.953,1.689,5.274,5.274,0,0,1-2.308.49,7.133,7.133,0,0,1-2.408-.47,9.858,9.858,0,0,1-2.271-1.209,9.328,9.328,0,0,1-1.918-1.832,7.393,7.393,0,0,1-1.229-2.248,5.712,5.712,0,0,1-.256-2.461,5.223,5.223,0,0,1,1-2.476A4.756,4.756,0,0,1,71.4,121.19l-3.918-2.8a.7.7,0,0,0-1.026.088l-.666.736c-.306.329-.6.391-.884.189a.717.717,0,0,1-.2-.924l1.42-3.688a.662.662,0,0,1,.1-.234l.127-.178c.078-.11.144-.169.2-.179q.178-.05.651.286l2.689,2.025Zm-2.21,2.2-6.588-4.7A4.637,4.637,0,0,0,69.89,123.6a2.766,2.766,0,0,0-.573,1.677,3.578,3.578,0,0,0,.428,1.622,6.163,6.163,0,0,0,1.073,1.443,10.316,10.316,0,0,0,1.325,1.14,6.5,6.5,0,0,0,3.754,1.5,2.934,2.934,0,0,0,2.442-1.251A4.382,4.382,0,0,0,78.987,126.78Z" transform="translate(0)" fill="#f9f9f9"/>
    <path d="M93.345,108.374a.845.845,0,0,1,.07-.745.472.472,0,0,1,.177-.115q.483-.157.771.438a4.847,4.847,0,0,1,.387,3,6.214,6.214,0,0,1-1.49,2.912,6.863,6.863,0,0,1-2.231,1.75,5.763,5.763,0,0,1-2.457.574,6.292,6.292,0,0,1-2.5-.522,8.947,8.947,0,0,1-2.388-1.517,7.817,7.817,0,0,1-1.78-2.2,6.917,6.917,0,0,1-.806-2.544,6.426,6.426,0,0,1,.257-2.619,6.814,6.814,0,0,1,1.409-2.463,6.627,6.627,0,0,1,1.306-1.151,5.291,5.291,0,0,1,1.564-.717,4.534,4.534,0,0,1,1.686-.129,3.357,3.357,0,0,1,1.618.637,1.324,1.324,0,0,1-.072,1.895q-.969,1.118-2.479.113l-.965-.569a.771.771,0,0,0-.8-.056,2.6,2.6,0,0,0-.61.526,3.2,3.2,0,0,0-.815,1.712,3.946,3.946,0,0,0,.187,1.775,6.175,6.175,0,0,0,.889,1.675,8.6,8.6,0,0,0,1.27,1.391,6.066,6.066,0,0,0,3.867,1.782,4.056,4.056,0,0,0,3.935-4.841Z" transform="translate(0)" fill="#f9f9f9"/>
    <path d="M90.875,95.749a.522.522,0,0,1,.287.037,1.777,1.777,0,0,1,.394.262l1.865,1.535a7.456,7.456,0,0,1-.448-2.969,3.279,3.279,0,0,1,.855-2.1,2.394,2.394,0,0,1,1.079-.609,1.678,1.678,0,0,1,1.4.27,1.717,1.717,0,0,1,.579,1.254,1.839,1.839,0,0,1-.588,1.289,2.571,2.571,0,0,1-1.94.7l-.2,0a8.117,8.117,0,0,0,.124,1.722,7.554,7.554,0,0,0,.6,1.817l4.526,4.413a.747.747,0,0,0,1.027.069l.772-.543q.569-.376.943-.011.395.384-.112.9l-4.049,4.152q-.505.521-.9.135c-.249-.243-.253-.556-.012-.943l.322-.5a.759.759,0,0,0-.075-1l-3.757-3.664-.748-.729q-.332-.324-.6-.547a3.594,3.594,0,0,1-.332-.282c-.1-.1-.2-.2-.312-.3a.744.744,0,0,0-1.025-.028l-.548.438q-.528.417-.9.052a.772.772,0,0,1-.113-.922l1.413-3.319a1.2,1.2,0,0,1,.261-.433A.474.474,0,0,1,90.875,95.749Z" transform="translate(0)" fill="#f9f9f9"/>
    <path d="M109.913,85.9a.728.728,0,0,1-.172,1.019l-6.222,5.657a5.916,5.916,0,0,0,3.617,2.082,4.489,4.489,0,0,0,4.38-2.748,5.191,5.191,0,0,0,.293-1.854.88.88,0,0,1,.216-.667.422.422,0,0,1,.252-.112q.517-.078.671.566a5.23,5.23,0,0,1-.088,3.136,6.8,6.8,0,0,1-1.94,2.824,7.154,7.154,0,0,1-2.506,1.533,5.955,5.955,0,0,1-2.591.3,6.49,6.49,0,0,1-2.5-.838,9.286,9.286,0,0,1-2.273-1.853,8.373,8.373,0,0,1-1.566-2.456,7.29,7.29,0,0,1-.569-2.717,6.582,6.582,0,0,1,.538-2.683,6.746,6.746,0,0,1,1.713-2.362,6.173,6.173,0,0,1,2.042-1.268,5.359,5.359,0,0,1,2.151-.329,5.236,5.236,0,0,1,2.1.582,6.69,6.69,0,0,1,1.9,1.486l.3.333A1.916,1.916,0,0,1,109.913,85.9Zm-7.249,5.651,3.219-2.927a1.791,1.791,0,0,0,.748-1.268,1.852,1.852,0,0,0-.552-1.145,3.235,3.235,0,0,0-2.01-1.111,2.32,2.32,0,0,0-1.948.594,2.683,2.683,0,0,0-.846,1.376,3.675,3.675,0,0,0-.022,1.57,5.708,5.708,0,0,0,.552,1.555A8.868,8.868,0,0,0,102.664,91.555Z" transform="translate(0)" fill="#f9f9f9"/>
    <path d="M125.106,80.949c.006-.053.153-.071.44-.053q.489.056.518.7a2.54,2.54,0,0,1-.224,1.346,3.185,3.185,0,0,1-.867,1.006,3.076,3.076,0,0,1-1.78.769,2.6,2.6,0,0,1-1.578-.469,9.971,9.971,0,0,1-.494,2.266,4.713,4.713,0,0,1-4.053,2.8,3.454,3.454,0,0,1-3.163-3.227,5.761,5.761,0,0,1,.359-2.065,10.378,10.378,0,0,1,.98-2q.6-.963,1.168-1.746l.886-1.261-.47-.59a4.4,4.4,0,0,0-2.077-1.7,2.333,2.333,0,0,0-1.951.645c-.075.061-.148.117-.215.172a1.441,1.441,0,0,0-.2.194.758.758,0,0,0-.134,1l.537,1.092q.811,1.578-.277,2.446a1.435,1.435,0,0,1-1,.33,1.4,1.4,0,0,1-.951-.449,3.852,3.852,0,0,1-.271-3.157,6.875,6.875,0,0,1,2.442-3.242,4.647,4.647,0,0,1,3.467-1.277q1.585.22,3.409,2.511l3.631,4.561q.813,1.022,1.448.515a1.085,1.085,0,0,0,.373-.556.938.938,0,0,0,.051-.356A.761.761,0,0,1,125.106,80.949Zm-4.286,2.486-2.8-3.517c-.292.38-.59.8-.9,1.271a7.683,7.683,0,0,0-.753,1.452,4.03,4.03,0,0,0-.284,1.5,2.267,2.267,0,0,0,.531,1.413,1.994,1.994,0,0,0,1.423.832,2.229,2.229,0,0,0,1.579-.554,2.56,2.56,0,0,0,.706-.858A7.2,7.2,0,0,0,120.82,83.435Z" transform="translate(0)" fill="#f9f9f9"/>
    <path d="M132.051,76.118a1.187,1.187,0,0,1,.348-.461.519.519,0,0,1,.448-.07.633.633,0,0,1,.491.789,3.9,3.9,0,0,1-.567,1.526,4.88,4.88,0,0,1-1.354,1.374,3.67,3.67,0,0,1-2.5.807,3.157,3.157,0,0,1-2.2-1.512l-.4-.555c-.118-.165-.224-.332-.321-.5l-3.838-5.384a.64.64,0,0,0-1.011-.169l-.5.353a.629.629,0,0,1-1-.146.684.684,0,0,1,.106-1l.76-.684a.794.794,0,0,0,.186-.987l-1.09-2.429a.709.709,0,0,1,.267-.973l.661-.472a.629.629,0,0,1,.988.187l1.366,2.017a.641.641,0,0,0,1.012.169l1.629-1.161a.642.642,0,0,1,1.012.169l.1.142a.64.64,0,0,1-.17,1.011l-1.652,1.179a.641.641,0,0,0-.17,1.011l4.259,5.974a2.27,2.27,0,0,0,1.234,1.008,1.4,1.4,0,0,0,1.156-.254,2.352,2.352,0,0,0,.394-.37A2.032,2.032,0,0,0,132.051,76.118Z" transform="translate(0)" fill="#f9f9f9"/>
    <path d="M141.4,63.267a.727.727,0,0,1-.345.973l-7.1,4.5a5.912,5.912,0,0,0,3.2,2.674,4.486,4.486,0,0,0,4.788-1.953,5.185,5.185,0,0,0,.608-1.776.879.879,0,0,1,.328-.62.427.427,0,0,1,.267-.066q.524.012.564.673a5.236,5.236,0,0,1-.626,3.074,6.8,6.8,0,0,1-2.4,2.447,7.164,7.164,0,0,1-2.732,1.079,5.943,5.943,0,0,1-2.6-.153,6.462,6.462,0,0,1-2.325-1.257,9.312,9.312,0,0,1-1.92-2.217,8.371,8.371,0,0,1-1.12-2.688,7.3,7.3,0,0,1-.092-2.773,6.586,6.586,0,0,1,.992-2.552,6.733,6.733,0,0,1,2.095-2.031,6.159,6.159,0,0,1,2.229-.9,5.366,5.366,0,0,1,2.175.046,5.256,5.256,0,0,1,1.966.935,6.674,6.674,0,0,1,1.615,1.791l.241.379A1.857,1.857,0,0,1,141.4,63.267Zm-8.113,4.317,3.674-2.328q.882-.56.955-1.121a1.848,1.848,0,0,0-.346-1.223,3.245,3.245,0,0,0-1.789-1.441,2.318,2.318,0,0,0-2.021.251,2.669,2.669,0,0,0-1.07,1.21,3.682,3.682,0,0,0-.293,1.542,5.8,5.8,0,0,0,.276,1.628A8.886,8.886,0,0,0,133.288,67.584Z" transform="translate(0)" fill="#f9f9f9"/>
  </g>
  <circle cx="255.5" cy="255.5" r="199" fill="#f9f9f9"/>
</svg>
