<svg xmlns="http://www.w3.org/2000/svg" width="454.349" height="437.794" viewBox="0 0 454.349 437.794">
  <g>
    <path d="M290,174.792a68.821,68.821,0,0,0,.364,17.6c.262,1.717.707,3.715,2.208,4.794a3.366,3.366,0,0,0,4.14-.11c3.327-2.687,2.693-8.428,2.826-12.141l.663-18.516.75-20.945a.736.736,0,0,0-.372-.648,6.764,6.764,0,0,0-7.716,1.572c-2.485,2.392-2.992,5.992-2.979,9.284.016,4.32.376,8.642.436,12.965q.093,6.649-.153,13.3a261.113,261.113,0,0,1-7.3,52.4,19.986,19.986,0,0,1-1.54,4.5q-1.351,2.734-2.711,5.464c-2.352,4.722-4.708,9.443-7.154,14.117-3.287,6.282-6.171,12.708-9.207,19.112a73.267,73.267,0,0,1-12.837,19.368c-5.552,5.844-12.342,9.866-20.387,11.04s-16.351-.155-24.088-2.453c-14.781-4.388-28.052-12.981-39.366-23.32-12.346-11.283-22.55-24.638-32.208-38.225-4.653-6.545-9.575-13.163-12.581-20.669a33.391,33.391,0,0,1-2.544-11.3,53.229,53.229,0,0,1,1.168-11c1.144-6.414,2.771-13.638-.3-19.778-1.7-3.409-5.532-5.547-6.42-9.353-.9-3.869,1.04-7.876,2.871-11.17,2.9-5.217,7.411-11.663,4.914-17.939-2.154-5.414-8.454-6.044-13.026-3.391-6.266,3.635-7.078,11.235-6.563,17.805.695,8.871,2.063,17.73,3.124,26.564l1.595,13.284c.422,3.509.563,7.262,1.913,10.575.964,2.363,2.694,4.481,5.355,4.861,2.969.425,5.772-1.613,7.157-4.115,1.841-3.325,1.512-7.351,1.378-11l-.492-13.465-1.006-27.542c-.313-8.576-.2-17.419-2.7-25.712-2.34-7.759-6.584-14.8-8.774-22.609-2.363-8.43-2.082-17.347-.744-25.925A131.325,131.325,0,0,1,113.722,58a68.154,68.154,0,0,1,11.862-21.241,75.5,75.5,0,0,1,16.835-14.419A133.925,133.925,0,0,1,162.092,12.1,146.534,146.534,0,0,1,186.61,3.773,83.112,83.112,0,0,1,233.9,6.418c27.98,10.022,51.816,33.543,60.347,62.244a72.626,72.626,0,0,1,3.1,21.032,63.609,63.609,0,0,1-1.022,11.121c-.5,2.752-1.845,6.257-.372,8.933,1.485,2.7,4.707,2.5,7.173,1.435,3.507-1.514,6.724-4.154,9.654-6.569q2.19-1.806,4.233-3.78a22.858,22.858,0,0,0,3.844-4.225c1.932-3.186-.694-5.648-2.92-7.7-11.465-10.577-23.173-21.226-36.874-28.866-14.191-7.914-29.992-11.312-46.106-12.223-8.27-.468-16.561-.351-24.835-.064-8.317.289-16.639.648-24.94,1.253-16.235,1.184-32.627,3.472-47.85,9.492-12.669,5.01-25.076,13.111-31.694,25.406a31.1,31.1,0,0,0-3.71,18.839,37.375,37.375,0,0,0,3.29,10.71,41.667,41.667,0,0,0,5.916,9.928c1.851,2.115,4.834,4.179,7.686,2.676,2.73-1.438,3.095-4.9,3.481-7.621,1.136-8.016,2.464-16.118,5.481-23.676,5.417-13.572,16.859-22.931,30.151-28.35,14.409-5.874,30.289-7.514,45.735-7.225a210.75,210.75,0,0,1,50.905,7.485c14.229,3.862,28.019,10.438,35.6,23.719,7.232,12.672,8.313,27.872,9.141,42.125.29,4.994.448,13.467-5.313,15.632-4.093,1.538-8.927-1.4-12.779-2.6a75.465,75.465,0,0,0-12.149-2.694c-5.809-.8-15.423-1.381-16.6,6.462-1.026,6.831,7.588,7.619,12.153,5.712,2.451-1.023,5.054-2.926,5.715-5.65.646-2.659-1-5.041-3.3-6.228-3.134-1.621-7.17-1.841-10.625-1.769a34.032,34.032,0,0,0-11.632,2.262c-2.587,1.01-5.338,2.613-5.806,5.61-.439,2.806,1.506,5.175,3.633,6.73,2.852,2.086,6.3,2.905,9.73,3.5a51.26,51.26,0,0,0,12.6.611A39.35,39.35,0,0,0,276,157.933c2.361-.912,4.913-2.447,5.695-5.019.946-3.11-1.153-5.978-3.53-7.752a17.85,17.85,0,0,0-8.962-3.2c-8.219-.837-16.017,2.649-24.174,2.735-2.016.022-4.75.1-6.341-1.341-1.42-1.287-1.328-3.509-.557-5.117,1.76-3.668,6.982-4.953,10.483-6.172a117.321,117.321,0,0,1,24.053-5.631c5.244-.651,15.079-2.5,17.784,3.79l.269-1.027c-8.735,3.7-18.555,2.1-27.678,1.177-8.547-.864-17.9-1.471-25.488,3.321-8.305,5.242-11.789,15.237-12.238,24.635a97.687,97.687,0,0,0,1.292,17.816c.684,5.022,1.339,10.182,3.6,14.787a31.231,31.231,0,0,0,4.052,5.777c1.659,2.057,3.014,4.426,2.159,7.126-1.594,5.031-7.6,6.707-12.267,6.515-2.867-.118-5.691-.672-8.536-1a50.686,50.686,0,0,0-7.575-.162c-4.038.134-10.136.227-11.138-4.878-.959-4.89,3.826-9.649,6.1-13.512a37.978,37.978,0,0,0,4.695-13.567c1.515-9.933-.059-20.082-2.2-29.8-1.083-4.915-2.059-10.055-3.958-14.732-1.657-4.082-4.359-7.675-8.619-9.225-3.4-1.239-8.733-.813-10.212,3.135a3.237,3.237,0,0,0,1.472,4.071c1.882,1.045,4.395.677,6.42.415A31.831,31.831,0,0,0,198.483,129a.76.76,0,0,0,.449-1.1c-2.552-3.574-6.773-4.817-10.938-5.386a165.1,165.1,0,0,0-17.388-1.19,239.285,239.285,0,0,0-37.239,1.826c-.927.117-.992,1.535,0,1.5a198.118,198.118,0,0,1,38.8,2.4c3.043.5,6.085,1.043,9.1,1.7a24.1,24.1,0,0,1,7.437,2.623c4.434,2.692,5.789,7.767,4.2,12.565-1.646,4.979-5.989,8.086-11.016,9.089-4.941.985-11.118.2-15.368-2.632-2.271-1.515-3.855-4.009-3.1-6.8.809-2.985,4.018-3.221,6.614-2.679,3.856.8,11.064,5.574,6.422,9.916-2.077,1.944-5.509,2.228-8.207,2.293a27.874,27.874,0,0,1-8.472-1.122,28.192,28.192,0,0,1-14.554-9.926l-.448,1.1a52.469,52.469,0,0,1,47.91,5.767c.8.549,1.548-.75.757-1.295a53.876,53.876,0,0,0-49.066-5.919c-.4.152-.767.68-.448,1.1a29.814,29.814,0,0,0,14.346,10.269c5.23,1.749,12.205,2.569,17.341.074a6.194,6.194,0,0,0,3.76-5.624c-.089-2.331-1.708-4.283-3.493-5.622-3.557-2.669-11.432-4.882-13.659.545-2.331,5.68,3.261,9.74,7.992,11.224,5.634,1.768,12.211,1.768,17.451-1.2a14.592,14.592,0,0,0,7.4-12.895c-.157-5.973-4.521-9.7-9.907-11.4a87.686,87.686,0,0,0-12.007-2.513q-6.388-1.061-12.837-1.7a199.553,199.553,0,0,0-26.948-.849v1.5a239.39,239.39,0,0,1,34.831-1.885c5.817.113,11.635.427,17.426.981,4.283.409,9.322,1.142,12.012,4.911l.449-1.1a30.824,30.824,0,0,1-8.618,2.17c-1.813.175-7.047.347-5.144-3.022,1.233-2.181,4.281-2.666,6.536-2.242a11.179,11.179,0,0,1,6.04,3.392c3.451,3.723,4.54,9.05,5.71,13.824,1.191,4.86,2.3,9.745,3.083,14.688,1.529,9.605,1.926,19.862-1.721,29.061-1.833,4.625-5.169,8.29-7.3,12.733-1.681,3.5-2.12,7.755,1.178,10.484,2.942,2.435,7.264,2.155,10.837,2.026a45.523,45.523,0,0,1,7.215.22c2.747.335,5.48.852,8.251.967,4.309.179,8.664-.925,11.671-4.2a8.012,8.012,0,0,0,.769-10.32c-1.358-2.028-3.146-3.712-4.382-5.831a25.966,25.966,0,0,1-2.688-7.073,117.6,117.6,0,0,1-2.408-16.532c-.954-10.3-.2-21.932,7.391-29.794,6.49-6.72,15.9-7.257,24.662-6.579s17.7,2.481,26.461.78a29.268,29.268,0,0,0,5.851-1.807c.4-.171.412-.7.27-1.026-2.4-5.572-9.744-5.428-14.8-4.985a119.221,119.221,0,0,0-23.818,4.548,78.906,78.906,0,0,0-11.12,4c-2.641,1.249-5.168,3.194-5.781,6.208-1.7,8.361,9.863,7.174,14.8,6.382,7.367-1.18,15.135-3.79,22.516-1.213,3.081,1.076,7.971,4.169,6.7,8.11-.987,3.066-4.916,4.211-7.689,4.875-8.009,1.919-17.169,2.041-25.054-.574-2.733-.907-6.482-2.952-7.04-6.09-.747-4.206,4.857-5.852,7.891-6.683a33.218,33.218,0,0,1,12.509-.959c2.928.335,8,1.167,8.115,5,.194,6.571-15.068,9.567-15.092,2.211-.013-4.049,3.964-6.115,7.492-6.417,4.061-.348,8.353.457,12.314,1.273a83.686,83.686,0,0,1,11.942,3.511c3.08,1.13,6.465,2.107,9.593.577,4.869-2.383,5.685-8.9,5.69-13.7a150.258,150.258,0,0,0-1.582-19.915c-1.8-13.418-5.916-27.1-16.225-36.493-10.344-9.422-24.365-13.317-37.721-16.205-16.575-3.585-33.566-5.788-50.55-5.165-26.45.969-57.516,9.4-68.407,36.353-2.947,7.293-4.31,15.1-5.428,22.852-.4,2.777-.692,8.978-5.037,8.018-3.65-.807-5.824-5.447-7.464-8.392-3.751-6.737-6.257-14.252-5-22.028a35.732,35.732,0,0,1,8.719-17.488c9.671-11.1,23.51-17.292,37.467-21.08,15.528-4.214,31.668-5.436,47.678-6.206,16.077-.772,32.335-1.571,48.348.508a101.1,101.1,0,0,1,23.293,5.708,98.583,98.583,0,0,1,20.418,11.027,191.832,191.832,0,0,1,18.231,14.559c2.843,2.52,5.646,5.085,8.439,7.659,1.22,1.124,2.923,2.327,3.665,3.859,1.106,2.283-1.4,4.256-2.849,5.714a70,70,0,0,1-9.343,7.886c-2.212,1.555-7.789,6.01-10.148,2.542-1.017-1.5-.565-3.619-.223-5.262.355-1.7.707-3.405.955-5.13a66.421,66.421,0,0,0,.689-10.111c-.248-27.734-16.739-53.514-38.5-69.727A96.2,96.2,0,0,0,220.277,1.208c-15.534-2.792-31.055-.522-45.886,4.535-13.768,4.693-27.6,10.89-39.159,19.833A67.638,67.638,0,0,0,120.6,40.844,78.366,78.366,0,0,0,110.9,61.7a133.924,133.924,0,0,0-5.083,23.022c-1.022,8.054-.974,16.355,1.325,24.2,2.23,7.606,6.34,14.5,8.623,22.085,2.458,8.169,2.341,16.865,2.649,25.313l.973,26.624.48,13.159c.142,3.884.832,8.639-1.479,12.053-2.178,3.216-6.458,3.9-8.7.416-1.818-2.829-1.976-6.515-2.364-9.749l-3.154-26.267c-.51-4.247-1.051-8.492-1.525-12.744-.436-3.909-.763-7.988.257-11.837a11.5,11.5,0,0,1,5.994-7.692c2.566-1.264,5.85-1.568,8.206.312,5.933,4.733.47,13.6-2.321,18.431-1.66,2.872-3.255,5.972-3.69,9.3a10.606,10.606,0,0,0,3.026,8.863c2.537,2.79,4.481,5.377,5.041,9.21a33.883,33.883,0,0,1-.513,10.3c-1.159,7.069-2.745,13.952-1.156,21.1,1.611,7.244,5.511,13.767,9.63,19.843,4.408,6.5,9.029,12.885,13.789,19.134,18.008,23.642,41.215,46.539,71.609,52.094,7.268,1.329,14.935,1.552,22.071-.61,6.85-2.076,12.552-6.461,17.248-11.767a78.605,78.605,0,0,0,12.17-19.162c2.845-6.1,5.628-12.172,8.749-18.136,2.34-4.473,4.6-8.99,6.85-13.507,1.318-2.645,2.934-5.3,3.987-8.07a45.271,45.271,0,0,0,1.4-5.741q.736-3.167,1.394-6.351,1.317-6.368,2.314-12.8,1.918-12.366,2.67-24.875.739-12.39.3-24.815c-.138-3.868-.845-8.095.179-11.888.876-3.245,4.339-6.815,7.961-5.024l-.371-.647q-.559,15.633-1.12,31.265l-.272,7.589a57.533,57.533,0,0,1-.353,7.4c-.255,1.522-.894,3.953-2.532,4.545-2.188.79-3.02-2.259-3.287-3.787a64.281,64.281,0,0,1-.387-17.691c.1-.959-1.4-.952-1.5,0Z"/>
    <path d="M125.028,244.514a87.243,87.243,0,0,0-5.4,31.86,13.719,13.719,0,0,1-.146,3.6,5.246,5.246,0,0,1-2.528,3.117,50.894,50.894,0,0,1-6.663,3.415,107.908,107.908,0,0,1-14.615,5.1c-9.789,2.76-19.805,4.739-29.418,8.107C55.751,303.4,45.777,308.539,35.735,313.3L.386,330.062c-.872.413-.112,1.707.757,1.3L33.114,316.2c10.471-4.964,20.859-10.363,31.74-14.386,9.747-3.6,19.956-5.655,29.955-8.4a119.472,119.472,0,0,0,14.664-4.92,72.46,72.46,0,0,0,6.654-3.184c1.816-.991,3.756-2.118,4.552-4.141a10.033,10.033,0,0,0,.47-3.9c-.03-1.545-.052-3.087-.015-4.632a85.079,85.079,0,0,1,.77-9.594,86.627,86.627,0,0,1,4.571-18.122c.335-.907-1.115-1.3-1.447-.4Z"/>
    <path d="M266.913,274.66c12.562,6.353,26.772,8.447,40.494,10.836,13.942,2.427,27.834,4.946,41.474,8.768a287.819,287.819,0,0,1,73.6,32.3c11.678,7.222,24.378,15.285,30.491,28.108.415.871,1.709.11,1.295-.757-5.332-11.186-15.651-18.748-25.777-25.319a289.464,289.464,0,0,0-72.818-33.9,343.085,343.085,0,0,0-41.067-9.456c-8.086-1.42-16.2-2.725-24.234-4.433-7.808-1.659-15.552-3.82-22.7-7.436-.859-.435-1.619.859-.757,1.3Z"/>
    <path d="M100.787,295.131A124.393,124.393,0,0,0,106.3,313.05,60.357,60.357,0,0,0,116.732,329.2c9.319,10.759,18.876,21.321,28.318,31.974a146.331,146.331,0,0,0,13.893,14.278A160.379,160.379,0,0,0,174.812,387.1q16.968,11.28,34.1,22.316c11.622,7.453,23.356,14.736,35.306,21.654,2.99,1.731,5.963,3.58,9.069,5.1,2.469,1.207,5.345,2.169,8.079,1.288,4.843-1.559,5.847-7.181,7.767-11.21,2.7-5.668,6.885-10.467,10.155-15.794a96.837,96.837,0,0,0,7.939-16.357c4.318-11.388,6.746-23.386,8.625-35.387.973-6.209,1.913-12.444,2.621-18.689a45.565,45.565,0,0,0-1.75-19.882A143.939,143.939,0,0,0,289.2,302.79a79.925,79.925,0,0,0-8.933-14.931,43.243,43.243,0,0,0-6.016-6.233c-.733-.619-1.8.437-1.06,1.061,8.947,7.556,13.8,18.6,18.539,29.032,2.73,6.01,5.241,12.307,5.632,18.969.383,6.529-.846,13.093-1.756,19.535-1.663,11.767-3.564,23.554-6.959,34.964a109.9,109.9,0,0,1-6.51,16.959,115.772,115.772,0,0,1-9.415,15.342,59.187,59.187,0,0,0-4.692,7.607c-1.11,2.25-1.807,4.683-2.963,6.909-1.24,2.385-3.134,4.286-5.991,4.292-3.2.006-6.176-2-8.862-3.526-11.6-6.572-22.987-13.513-34.251-20.644-11.242-7.118-22.362-14.425-33.469-21.752-5.416-3.572-10.882-7.087-16.108-10.936a105.237,105.237,0,0,1-14.533-12.965c-9.273-9.929-18.1-20.308-27.108-30.475-4.418-4.986-9.173-9.849-12.829-15.443a63.094,63.094,0,0,1-7.354-17.063c-.845-2.9-1.586-5.831-2.325-8.76a.751.751,0,0,0-1.447.4Z"/>
    <path d="M173.833,240.572l-1.179.695c-.857.5-.1,1.66.757,1.3A132.941,132.941,0,0,1,189,237.08c4.978-1.408,10.5-3.165,15.562-1.184,2.13.834,4.126,2.1,6.385,2.581a7.947,7.947,0,0,0,5.872-1.132,11.608,11.608,0,0,1,3.435-1.537,11.031,11.031,0,0,1,4.272.09,33.463,33.463,0,0,1,6.987,2.276,41.96,41.96,0,0,1,13.2,9.148l.331-1.253c-4.371,1.065-8.82.378-13.186-.351a46.919,46.919,0,0,0-12.483-.894,22.462,22.462,0,0,1-6.93-.111c-2.211-.453-4.364-1.162-6.556-1.7a84.686,84.686,0,0,0-28.759-1.962.756.756,0,0,0-.379,1.4q3.453,1.943,6.905,3.883c1.969,1.112,3.83,2.243,4.938,4.289.983,1.818,1.876,3.307,3.747,4.32a28.5,28.5,0,0,0,5.819,2.084,18.845,18.845,0,0,0,7.2.853c2.272-.25,4.441-1.009,6.691-1.376,4.7-.765,9.175,1.741,13.87.939,4.663-.8,8.378-4.18,11.711-7.3.706-.661-.356-1.72-1.061-1.06-2.927,2.737-6.1,5.691-10.091,6.707-4.4,1.121-8.637-1.22-13.047-.951a46,46,0,0,0-6.473,1.264,16.153,16.153,0,0,1-7.475-.274,31.4,31.4,0,0,1-6.052-2.011,6.409,6.409,0,0,1-2.271-1.742c-.7-.89-1.073-1.978-1.684-2.923a12.84,12.84,0,0,0-4.713-3.92c-2.41-1.373-4.837-2.72-7.255-4.08l-.378,1.4a83.857,83.857,0,0,1,27.9,1.8c4.35,1.035,8.421,2.537,12.961,2.113a40.032,40.032,0,0,1,6.558-.241c2.322.161,4.618.559,6.912.942,4.639.775,9.339,1.482,13.983.35a.756.756,0,0,0,.331-1.253,43.2,43.2,0,0,0-11.811-8.6c-4.088-2.012-9.254-4.209-13.9-3.346-2.528.47-4.455,2.668-7.019,2.846-2.538.176-4.906-1.354-7.145-2.325-4.961-2.153-9.945-1.166-14.99.165a135.721,135.721,0,0,0-18.257,6.263l.757,1.3,1.179-.7a.75.75,0,0,0-.757-1.295Z"/>
  </g>
</svg>
