<svg id="Layer_1" data-name="Layer 1" xmlns="http://www.w3.org/2000/svg" viewBox="0 0 241.21 367.3"><defs><style>.cls-1,.cls-5{fill:#feff73;}.cls-1,.cls-10,.cls-2,.cls-3{stroke:#231f20;stroke-linecap:round;stroke-linejoin:round;}.cls-2,.cls-4{fill:#6ceaab;}.cls-3{fill:#a2e540;}.cls-6{fill:#fe8bb6;}.cls-7{fill:#f7ebc3;}.cls-8{fill:#bed9d4;}.cls-9{fill:#7c8482;}.cls-10{fill:none;}</style></defs><title>robot</title><path class="cls-1" d="M232,212.49l2.63,4.67L231,226.24l7.19,3.4,4.71-11.88-6.29-13.58-13.64-.07-9.08,11.67L216,228.06l7.43-1.78-1.47-9,3.56-6.57S229.88,206.43,232,212.49Z" transform="translate(-3.83)"/><circle class="cls-2" cx="225.34" cy="205.55" r="5.84"/><path class="cls-1" d="M17.1,209.2l-2.63,4.67L18.09,223l-7.2,3.4-4.7-11.88,6.28-13.58,13.65-.07,9.08,11.67L33,224.77,25.59,223l1.47-9-3.55-6.57S19.18,203.14,17.1,209.2Z" transform="translate(-3.83)"/><circle class="cls-3" cx="16.06" cy="202.26" r="5.84"/><path class="cls-4" d="M244,142.57s1.15,11.19,0,15.56-2.22,40.36-2.22,40.36h-6l-.73-8.25c.88-.18,1.44-.41,1.53-.68,1.09-3.32.4-26.81.08-36h.48c1.26-.61,2.54-4.82,2.54-4.82a9.92,9.92,0,0,0,1.31-5.37c0-.28,0-.57,0-.85h3Z" transform="translate(-3.83)"/><path class="cls-5" d="M241.05,143.42a9.92,9.92,0,0,1-1.31,5.37,2.19,2.19,0,0,1-1.68,1.11c-1.66,0-3-2.89-3-6.46s1.34-6.49,3-6.49c.85,0,1.61.74,2.15,1.94v0a10.79,10.79,0,0,1,.83,3.66C241,142.85,241.05,143.14,241.05,143.42Z" transform="translate(-3.83)"/><path class="cls-4" d="M236.58,150a68.56,68.56,0,0,0-9.21.28l0-.35c-.32-1.11-.81-11-.81-11a12.78,12.78,0,0,0,4-1.2c1-.62,1.2-2.5,1-4.89h.09c6.33-.37,8.44,5.69,8.56,6.06-.54-1.2-1.3-1.94-2.15-1.94-1.65,0-3,2.9-3,6.49s1.35,6.46,3,6.46a2.19,2.19,0,0,0,1.68-1.11s-1.28,4.21-2.54,4.82h-.48C236.64,151.36,236.58,150,236.58,150Z" transform="translate(-3.83)"/><path class="cls-4" d="M238.54,201.41l-1.27,5.68c-5.87-2.59-21,0-21,0v-5.66s.72-.26,1.94-.59c3.7-1,11.9-2.79,17.82-.7h0A10.76,10.76,0,0,1,238.54,201.41Z" transform="translate(-3.83)"/><path class="cls-6" d="M236.72,153.62c.32,9.15,1,32.64-.08,36-.09.27-.65.5-1.53.68a59.31,59.31,0,0,1-17,.13c-1-.2-1.67-.45-1.86-.77-1.22-2-3.06-38-3.06-38s2.24-.27,5.37-.59c2.57-.27,5.74-.57,8.76-.78a68.56,68.56,0,0,1,9.21-.28S236.64,151.36,236.72,153.62Z" transform="translate(-3.83)"/><path class="cls-5" d="M235.84,198.51l.15,1.65c-5.92-2.09-14.12-.3-17.82.7V190.39a59.31,59.31,0,0,0,17-.13Z" transform="translate(-3.83)"/><path class="cls-6" d="M231.47,132.06c0,.26.06.53.07.78.23,2.39,0,4.27-1,4.89a12.78,12.78,0,0,1-4,1.2,83.84,83.84,0,0,1-8.93.9c-3.1.16-5.51.2-5.51.2s-.82-4.86-1.3-7.29-5.54-17.34-7.65-20.09-4.88-19.12-4.73-19.9a22.45,22.45,0,0,0,4,.57A22.05,22.05,0,0,0,218,88.09a20.68,20.68,0,0,0,3.73-4.26h0s4.7,11.61,5,13.63,1,16.13,1.16,18.9C228.06,118.22,230.75,126.33,231.47,132.06Z" transform="translate(-3.83)"/><path class="cls-5" d="M227.34,149.91l0,.35c-3,.21-6.19.51-8.76.78l0-.27c-.07-.26-1-10.75-1-10.75v-.19a83.84,83.84,0,0,0,8.93-.9S227,148.8,227.34,149.91Z" transform="translate(-3.83)"/><path class="cls-5" d="M221.65,63.12a18.78,18.78,0,0,1,1.66,17.77C217.46,74.29,221.65,63.12,221.65,63.12Z" transform="translate(-3.83)"/><path class="cls-4" d="M223.31,80.89,231.56,88c-.07,2,3.46,30,3.46,30s1,10.2.88,11.33-4.18,2.67-4.43,2.77c-.72-5.73-3.41-13.84-3.53-15.7-.16-2.77-.83-16.87-1.16-18.9s-5-13.63-5-13.63h0A19.71,19.71,0,0,0,223.31,80.89Z" transform="translate(-3.83)"/><path class="cls-6" d="M223.31,80.89a19.71,19.71,0,0,1-1.56,2.94A20.68,20.68,0,0,1,218,88.09c-11.7-17.23-1.88-30.63-1.88-30.63a20.32,20.32,0,0,1,5.51,5.66S217.46,74.29,223.31,80.89Z" transform="translate(-3.83)"/><path class="cls-4" d="M218.59,150.77l0,.27c-3.13.32-5.37.59-5.37.59a9.81,9.81,0,0,1-1.15-11.6s2.41,0,5.51-.2V140S218.52,150.51,218.59,150.77Z" transform="translate(-3.83)"/><path class="cls-4" d="M216.14,57.46s-9.82,13.4,1.88,30.63a22.05,22.05,0,0,1-15.63,5.23,22.45,22.45,0,0,1-4-.57,21.8,21.8,0,0,1-8.78-4.25l-.17.08c-6.74-15.16.16-30,.16-30l-.25-.26a22,22,0,0,1,15.15-4.84A22.27,22.27,0,0,1,216.14,57.46Z" transform="translate(-3.83)"/><path class="cls-5" d="M205.72,344.06a17,17,0,0,1,5.34,9.69s-1.62,5.69-16.36,5.26-18.49-7.9-18.49-7.9a72.88,72.88,0,0,1,6.65-7.68C187.7,338.58,205.72,344.06,205.72,344.06Z" transform="translate(-3.83)"/><path class="cls-4" d="M211.06,353.75l-.8,10s-4.69,3.15-16.61,3-18.07-6.27-18.07-6.27l.63-9.42s3.73,7.48,18.49,7.9S211.06,353.75,211.06,353.75Z" transform="translate(-3.83)"/><path class="cls-6" d="M201.52,259.81h-.91l-24.53,0H174L164.73,228l0,0a116.64,116.64,0,0,0,11.17-7l3.6-28.05c2.25.06,22,1.2,22,20.16C201.47,233.23,201.52,259.81,201.52,259.81Z" transform="translate(-3.83)"/><path class="cls-5" d="M200.61,259.81v5.88a39.52,39.52,0,0,1-24.52.49h0l0-6.32Z" transform="translate(-3.83)"/><path class="cls-5" d="M181.31,326.69c5.76,1.84,14.71,3.5,23.57.35v7.29c-4.29-2.23-10.93-2.47-17-2.24a11,11,0,0,0-6.7,2.64V327.1Z" transform="translate(-3.83)"/><path class="cls-5" d="M189.37,58.35l.25.26s-6.9,14.81-.16,30c.07.14.12.29.19.43l-1.55,8.5S183.6,98.73,178,75.16c-2.94-19.44,4.1-24.31,4.1-24.31Z" transform="translate(-3.83)"/><path class="cls-6" d="M188.59,121.88l-7.39,57.59c-81.31-32.45-109.91.15-109.91.15l-7.76-59.08s55.48,17.91,124.6,1.29Z" transform="translate(-3.83)"/><path class="cls-5" d="M59.09,69.25s7.06,9.23,28.21,10.42a363.86,363.86,0,0,0,40.6,1.24c31.55-.83,50.07-5.75,50.07-5.75,5.63,23.57,10.13,22.35,10.13,22.35l0,24.32c-69.12,16.62-124.6-1.29-124.6-1.29l0-20.67A14.7,14.7,0,0,1,58.14,94a18,18,0,0,1-1.3-3.23,25.18,25.18,0,0,1-.17-12.49C59.44,65,59.29,67.4,59.16,68.71c0,.15,0,.28,0,.37S59.09,69.25,59.09,69.25Z" transform="translate(-3.83)"/><path class="cls-5" d="M179.47,193,175.87,221a116.64,116.64,0,0,1-11.17,7c-34.89,19.13-62.51,9-77,.16h0c-.9-.55-1.75-1.09-2.53-1.62a57.59,57.59,0,0,1-8.62-6.83l-3.49-26.58-1.77-13.5s28.6-32.6,109.91-.15Z" transform="translate(-3.83)"/><path class="cls-6" d="M211.06,353.75a17,17,0,0,0-5.34-9.69s-18-5.48-22.86-.63a72.88,72.88,0,0,0-6.65,7.68c-.48-.75,0-9.13,0-9.13a18.09,18.09,0,0,1,5-7.25,11,11,0,0,1,6.7-2.64c6.11-.23,12.75,0,17,2.24a8.32,8.32,0,0,1,3.7,3.42S211.29,350.94,211.06,353.75Z" transform="translate(-3.83)"/><path class="cls-6" d="M174.6,265.66s.53.22,1.5.52a39.52,39.52,0,0,0,24.52-.49c.83-.3,1.67-.64,2.51-1,0,0,4.11,31.35,5.58,35.24s4.85,22.45,2.14,24.19a28.72,28.72,0,0,1-6,2.94c-8.86,3.15-17.81,1.49-23.57-.35a39,39,0,0,1-6.3-2.56s0-1.14-.25-3.68.61-25.69,1.76-30.29S174.6,265.66,174.6,265.66Z" transform="translate(-3.83)"/><path class="cls-5" d="M146,20s27,13.09,36,30.83c0,0-7,4.87-4.1,24.31,0,0-18.52,4.92-50.07,5.75l-3.17-6.64L91.9,73.34l-4.6,6.33C66.15,78.48,59.09,69.25,59.09,69.25s0-.06,0-.17l0-.37L61,55.14A9,9,0,0,1,61.36,54c4.74-13.64,38-33.89,38-33.89A71.82,71.82,0,0,0,146,20Z" transform="translate(-3.83)"/><path class="cls-4" d="M146,20a71.82,71.82,0,0,1-46.67.07C131,10.81,146,20,146,20Z" transform="translate(-3.83)"/><path class="cls-4" d="M124.73,74.27l3.17,6.64a363.86,363.86,0,0,1-40.6-1.24l4.6-6.33Z" transform="translate(-3.83)"/><path class="cls-5" d="M87.7,228.15h0L78.55,260H74.66l10.51-33.45C86,227.06,86.8,227.6,87.7,228.15Z" transform="translate(-3.83)"/><path class="cls-6" d="M85.17,226.53,74.66,260l-21.87,0H51s0-26.59-.06-46.68,22.12-20.22,22.12-20.22l3.49,26.58A57.59,57.59,0,0,0,85.17,226.53Z" transform="translate(-3.83)"/><path class="cls-7" d="M78.55,260l-1,9.7c-.62-1.43-1.5-2.32-2.5-2.37a1.85,1.85,0,0,0-1,.28l.64-7.61Z" transform="translate(-3.83)"/><path class="cls-5" d="M77.56,281.14s-4.29,30.94-4.55,34.5-6,5.6-6,5.6l7.27-36.69C75.59,284.61,76.78,283.26,77.56,281.14Z" transform="translate(-3.83)"/><path class="cls-5" d="M74.66,260,74,267.59A3.78,3.78,0,0,0,72.66,269c-5,2-14.69-1.52-19.86-3.71V260Z" transform="translate(-3.83)"/><path class="cls-6" d="M62.23,322.54a75.36,75.36,0,0,1-20.39.36,41.6,41.6,0,0,1-7.52-1.53c-3-1-5-2.31-5.07-4-.38-6.51,6.64-18.87,11.85-27.08s8.24-26.58,8.24-26.58,1.36.66,3.46,1.55C58,267.46,67.66,271,72.66,269a13.9,13.9,0,0,0-1.81,6.8,2.43,2.43,0,0,0,0,.27c-.14,4.63,1.4,8.42,3.47,8.5l-7.27,36.69A23.52,23.52,0,0,1,62.23,322.54Z" transform="translate(-3.83)"/><path class="cls-4" d="M78.52,276.1a16.43,16.43,0,0,1-1,5c-.78,2.12-2,3.47-3.24,3.41-2.07-.08-3.61-3.87-3.47-8.5l3.18.05c0,1,.24,1.76.57,1.78s.68-.85.73-1.92l3.19.05Z" transform="translate(-3.83)"/><path class="cls-4" d="M77.54,269.68a15.1,15.1,0,0,1,1,6.33L75.33,276c0-1.07-.21-2-.57-2s-.69.84-.73,1.91v.2l-3.18-.05a2.43,2.43,0,0,1,0-.27,13.9,13.9,0,0,1,1.81-6.8A3.78,3.78,0,0,1,74,267.59a1.85,1.85,0,0,1,1-.28C76,267.36,76.92,268.25,77.54,269.68Z" transform="translate(-3.83)"/><path class="cls-4" d="M63.48,332.12a.94.94,0,0,0-1.87-.09.94.94,0,0,0,.9,1A.93.93,0,0,0,63.48,332.12Zm.1-4.91a5.27,5.27,0,0,1,2.52,5c-.11,2.86-2,5.1-4.26,5s-4-2.49-3.84-5.35a6.46,6.46,0,0,1,.36-1.85,4.22,4.22,0,0,1,3.91-3.17,2.59,2.59,0,0,0,1.29.34Z" transform="translate(-3.83)"/><path class="cls-5" d="M41.84,322.9a75.36,75.36,0,0,0,20.39-.36V324l0,2.9A4.22,4.22,0,0,0,58.36,330l-.27-.09a93.43,93.43,0,0,0-16.6-4.18Z" transform="translate(-3.83)"/><path class="cls-4" d="M61.84,337.24c2.24.09,4.15-2.15,4.26-5a5.27,5.27,0,0,0-2.52-5c2.5,0,5.32-3,5.32-3s3.66,22.91,2,27.35S39.1,361,29.69,361.2s-13.43-4.78-13.43-4.78l.3-7.11a39.32,39.32,0,0,0,27.22,3.07A31,31,0,0,0,50,350.07C59.66,345.22,61.84,337.24,61.84,337.24Z" transform="translate(-3.83)"/><path class="cls-4" d="M51.61,52.33s4.13-1.21,9.55,1.58l.2.07A9,9,0,0,0,61,55.14L59.16,68.71c.13-1.31.28-3.69-2.49,9.54a25.18,25.18,0,0,0,.17,12.49l-.15,0c-5.67.68-7.89,0-7.89,0A21.72,21.72,0,0,1,39.63,85c13.44-15.91,5.11-30.26,5.11-30.26A21.93,21.93,0,0,1,51.61,52.33Z" transform="translate(-3.83)"/><path class="cls-8" d="M59.16,68.71l0,.37C59.12,69,59.13,68.86,59.16,68.71Z" transform="translate(-3.83)"/><path class="cls-6" d="M30.83,334c-3.35-1-6,.3-8.12,2.5l9.77-10.86a9.73,9.73,0,0,1,1.69-.24,34.87,34.87,0,0,1,7.32.38A93.43,93.43,0,0,1,58.09,330l.27.09a6.46,6.46,0,0,0-.36,1.85c-.11,2.86,1.61,5.26,3.84,5.35,0,0-2.18,8-11.88,12.83l-.23-.69C45.35,332.33,41.08,337,30.83,334Z" transform="translate(-3.83)"/><path class="cls-5" d="M49.73,349.38l.23.69a31,31,0,0,1-6.18,2.31,39.32,39.32,0,0,1-27.22-3.07s1.64-7.47,5.49-12.09l.07-.08.59-.65c2.09-2.2,4.77-3.49,8.12-2.5C41.08,337,45.35,332.33,49.73,349.38Z" transform="translate(-3.83)"/><path class="cls-6" d="M44.74,54.74S53.07,69.09,39.63,85a20.08,20.08,0,0,1-3.26-4.63,19.17,19.17,0,0,1-1.24-3.09c6.52-5.94,3.52-17.51,3.52-17.51A20.94,20.94,0,0,1,44.74,54.74Z" transform="translate(-3.83)"/><path class="cls-4" d="M40.06,137.27a9.79,9.79,0,0,1-2.37,11.42s-2.2-.5-5.28-1.15l.06-.26c.09-.25,2.11-10.59,2.11-10.59l0-.2C37.67,137,40.06,137.27,40.06,137.27Z" transform="translate(-3.83)"/><path class="cls-5" d="M38.65,59.77s3,11.57-3.52,17.51a18.48,18.48,0,0,1-.8-6.45A19,19,0,0,1,38.65,59.77Z" transform="translate(-3.83)"/><path class="cls-6" d="M21.63,127.31c1.31-5.62,4.85-13.4,5.16-15.24.46-2.74,2.6-16.69,3.14-18.67s6.44-13,6.44-13A20.08,20.08,0,0,0,39.63,85a21.72,21.72,0,0,0,9.17,5.78s2.22.68,7.89,0l.15,0A18,18,0,0,0,58.14,94c-1.23,4.68-4.41,15-6.3,17-2.38,2.51-9,16.8-9.72,19.17s-2.06,7.11-2.06,7.11-2.39-.28-5.45-.78a80,80,0,0,1-8.79-1.83,12.68,12.68,0,0,1-3.89-1.61c-.94-.73-.94-2.61-.45-5C21.52,127.82,21.57,127.57,21.63,127.31Z" transform="translate(-3.83)"/><path class="cls-4" d="M26.18,83.46l9-6.18a19.17,19.17,0,0,0,1.24,3.09s-5.9,11-6.44,13-2.68,15.93-3.14,18.67c-.31,1.84-3.85,9.62-5.16,15.24-.24-.12-4.07-2.11-4.11-3.21s2.08-11.19,2.08-11.19S26,85.4,26.18,83.46Z" transform="translate(-3.83)"/><path class="cls-9" d="M34.16,325.24l.16-3.87a41.6,41.6,0,0,0,7.52,1.53l-.35,2.87a34.87,34.87,0,0,0-7.32-.38Z" transform="translate(-3.83)"/><path class="cls-6" d="M37.69,148.69s-5.61,35.65-7,37.45a3.11,3.11,0,0,1-1.94.57c-4.49.44-15.15-1-17.72-2.25-.34-.17-.53-.33-.57-.49-.75-3.41,2.42-26.69,3.71-35.76.31-2.25.52-3.62.52-3.62a68.65,68.65,0,0,1,9.13,1.24c3,.54,6.1,1.18,8.62,1.71C35.49,148.19,37.69,148.69,37.69,148.69Z" transform="translate(-3.83)"/><path class="cls-5" d="M34.61,136.49l0,.2s-2,10.34-2.11,10.59l-.06.26c-2.52-.53-5.63-1.17-8.62-1.71l.06-.33c.44-1.06,2-10.84,2-10.84A80,80,0,0,0,34.61,136.49Z" transform="translate(-3.83)"/><path class="cls-4" d="M29.47,199.06l-.6,5.65s-14.8-4.2-20.91-2.25l-.66-5.77a11.07,11.07,0,0,1,2.54-.95c4.72-1.16,10.56.14,14.63,1.44A47.66,47.66,0,0,1,29.47,199.06Z" transform="translate(-3.83)"/><path class="cls-5" d="M28.72,186.71l-1.11,10.43-3.14,0c-4.07-1.3-9.91-2.6-14.63-1.44l.29-2.83.87-8.45C13.57,185.75,24.23,187.15,28.72,186.71Z" transform="translate(-3.83)"/><path class="cls-5" d="M14.58,131.49c1.65.17,2.68,3.2,2.3,6.75s-2,6.3-3.68,6.12a2.17,2.17,0,0,1-1.54-1.23v0a9.89,9.89,0,0,1-.76-5.5c0-.29.07-.57.12-.84a10.47,10.47,0,0,1,1.22-3.56s0,0,0,0v0C12.93,132,13.76,131.4,14.58,131.49Z" transform="translate(-3.83)"/><path class="cls-4" d="M21.48,128.07c-.49,2.37-.49,4.25.45,5a12.68,12.68,0,0,0,3.89,1.61s-1.53,9.78-2,10.84l-.06.33a68.65,68.65,0,0,0-9.13-1.24s-.21,1.37-.52,3.62l-.48-.07c-1.12-.7-1.9-4.53-2-5a2.17,2.17,0,0,0,1.54,1.23c1.66.18,3.29-2.56,3.68-6.12s-.65-6.58-2.3-6.75c-.82-.09-1.65.54-2.32,1.66.3-.63,3-6.09,9.14-5.09Z" transform="translate(-3.83)"/><path class="cls-4" d="M6.38,151.91C5.72,147.44,8,136.44,8,136.44l3,.33h0c0,.27-.08.55-.12.84a9.89,9.89,0,0,0,.76,5.5v0c.1.48.88,4.31,2,5l.48.07c-1.29,9.07-4.46,32.35-3.71,35.76,0,.16.23.32.57.49l-.87,8.45-5.8-.63S7,156.38,6.38,151.91Z" transform="translate(-3.83)"/><path class="cls-10" d="M59.09,69.25s7.06,9.23,28.21,10.42l4.6-6.33,32.83.93,3.17,6.64" transform="translate(-3.83)"/><path class="cls-10" d="M99.37,20.09C131,10.81,146,20,146,20c-25.1-44-46.67.07-46.67.07S66.1,40.34,61.36,54A9,9,0,0,0,61,55.14L59.16,68.71l0,.37" transform="translate(-3.83)"/><path class="cls-10" d="M99.37,20.09A71.82,71.82,0,0,0,146,20s27,13.09,36,30.83c0,0-7,4.87-4.1,24.31,0,0-18.52,4.92-50.07,5.75a363.86,363.86,0,0,1-40.6-1.24" transform="translate(-3.83)"/><path class="cls-10" d="M182.07,50.85l7.3,7.5.25.26s-6.9,14.81-.16,30c.07.14.12.29.19.43l-1.55,8.5S183.6,98.73,178,75.16" transform="translate(-3.83)"/><path class="cls-10" d="M59.09,69.25s0-.06,0-.17,0-.22,0-.37c.13-1.31.28-3.69-2.49,9.54a25.18,25.18,0,0,0,.17,12.49A18,18,0,0,0,58.14,94a14.7,14.7,0,0,0,5.36,5.9l0,20.67V122" transform="translate(-3.83)"/><path class="cls-10" d="M87.7,228.16c14.49,8.82,42.11,19,77-.16a116.64,116.64,0,0,0,11.17-7l3.6-28.05,1.73-13.51,7.39-57.59,0,0" transform="translate(-3.83)"/><path class="cls-10" d="M188.1,97.51l0,24.32c-69.12,16.62-124.6-1.29-124.6-1.29l7.76,59.08,1.77,13.5,3.49,26.58a57.59,57.59,0,0,0,8.62,6.83c.78.53,1.63,1.07,2.53,1.62" transform="translate(-3.83)"/><path class="cls-10" d="M71.29,179.62s28.6-32.6,109.91-.15h0" transform="translate(-3.83)"/><path class="cls-10" d="M73.06,193.12s-22.15.12-22.12,20.22S51,260,51,260h1.79l21.87,0h3.89l9.15-31.82h0" transform="translate(-3.83)"/><path class="cls-10" d="M179.26,193h.21c2.25.06,22,1.2,22,20.16,0,20.09.07,46.67.07,46.67h-.91l-24.53,0H174L164.73,228" transform="translate(-3.83)"/><path class="cls-10" d="M72.81,268.92l-.15.06c-5,2-14.69-1.52-19.86-3.71-2.1-.89-3.46-1.55-3.46-1.55s-3,18.37-8.24,26.58-12.23,20.57-11.85,27.08c.11,1.68,2.07,3,5.07,4a41.6,41.6,0,0,0,7.52,1.53,75.36,75.36,0,0,0,20.39-.36,23.52,23.52,0,0,0,4.82-1.3l7.27-36.69" transform="translate(-3.83)"/><path class="cls-10" d="M72.66,269a13.9,13.9,0,0,0-1.81,6.8,2.43,2.43,0,0,0,0,.27c-.14,4.63,1.4,8.42,3.47,8.5,1.27.06,2.46-1.29,3.24-3.41a16.43,16.43,0,0,0,1-5V276a15.1,15.1,0,0,0-1-6.33c-.62-1.43-1.5-2.32-2.5-2.37a1.85,1.85,0,0,0-1,.28A3.78,3.78,0,0,0,72.66,269Z" transform="translate(-3.83)"/><path class="cls-10" d="M75.33,276c0-1.07-.21-2-.57-2s-.69.84-.73,1.91v.2c0,1,.24,1.76.57,1.78S75.28,277,75.33,276Z" transform="translate(-3.83)"/><path class="cls-10" d="M63.56,327.21a3.21,3.21,0,0,0-1.29-.34A4.22,4.22,0,0,0,58.36,330a6.46,6.46,0,0,0-.36,1.85c-.11,2.86,1.61,5.26,3.84,5.35s4.15-2.15,4.26-5a5.27,5.27,0,0,0-2.52-5" transform="translate(-3.83)"/><path class="cls-10" d="M61.84,337.24s-2.18,8-11.88,12.83a31,31,0,0,1-6.18,2.31,39.32,39.32,0,0,1-27.22-3.07l-.3,7.11s4,5,13.43,4.78,39.47-5.16,41.17-9.61-2-27.35-2-27.35-2.82,3-5.32,3h0a2.59,2.59,0,0,1-1.29-.34l0-2.9v-1.43h0" transform="translate(-3.83)"/><path class="cls-10" d="M22.12,337.14c.19-.22.38-.44.59-.65,2.09-2.2,4.77-3.49,8.12-2.5,10.25,3,14.52-1.66,18.9,15.39" transform="translate(-3.83)"/><path class="cls-10" d="M16.56,349.31s1.64-7.47,5.49-12.09" transform="translate(-3.83)"/><path class="cls-10" d="M22.05,337.22l.07-.08.59-.65,9.77-10.86a9.73,9.73,0,0,1,1.69-.24,34.87,34.87,0,0,1,7.32.38A93.43,93.43,0,0,1,58.09,330" transform="translate(-3.83)"/><line class="cls-10" x1="30.33" y1="325.24" x2="30.5" y2="321.37"/><path class="cls-10" d="M67.05,321.24s5.71-2,6-5.6,4.55-34.5,4.55-34.5" transform="translate(-3.83)"/><line class="cls-10" x1="65.07" y1="324.24" x2="58.57" y2="323.97"/><path class="cls-10" d="M63.48,332.12a.93.93,0,0,1-1,.89.94.94,0,0,1-.9-1,.94.94,0,0,1,1.87.09Z" transform="translate(-3.83)"/><path class="cls-10" d="M204.88,327a28.72,28.72,0,0,0,6-2.94c2.71-1.74-.69-20.3-2.14-24.19s-5.58-35.24-5.58-35.24c-.84.38-1.68.72-2.51,1a39.52,39.52,0,0,1-24.52.49c-1-.3-1.5-.52-1.5-.52s3.07,19.91,1.92,24.5-2,27.73-1.76,30.29.25,3.68.25,3.68a39,39,0,0,0,6.3,2.56C187.07,328.53,196,330.19,204.88,327Z" transform="translate(-3.83)"/><path class="cls-10" d="M211.06,353.75a17,17,0,0,0-5.34-9.69s-18-5.48-22.86-.63a72.88,72.88,0,0,0-6.65,7.68s3.73,7.48,18.49,7.9S211.06,353.75,211.06,353.75Z" transform="translate(-3.83)"/><path class="cls-10" d="M211.06,353.75l-.8,10s-4.69,3.15-16.61,3-18.07-6.27-18.07-6.27l.63-9.42c-.48-.75,0-9.13,0-9.13a18.09,18.09,0,0,1,5-7.25,11,11,0,0,1,6.7-2.64c6.11-.23,12.75,0,17,2.24a8.32,8.32,0,0,1,3.7,3.42S211.29,350.94,211.06,353.75Z" transform="translate(-3.83)"/><polyline class="cls-10" points="177.34 334.73 177.33 330.92 177.33 327.11"/><polyline class="cls-10" points="201.08 334.33 201.08 330.88 201.07 327.07"/><path class="cls-10" d="M176.2,342s.33-9.69,5-11.06" transform="translate(-3.83)"/><path class="cls-10" d="M208.6,337.75s-.63-5.35-3.7-6.87" transform="translate(-3.83)"/><line class="cls-10" x1="48.96" y1="260.02" x2="48.97" y2="265.27"/><polyline class="cls-10" points="74.73 259.98 73.71 269.68 73.71 269.71"/><polyline class="cls-10" points="70.19 267.59 70.83 259.98 81.34 226.53"/><line class="cls-10" x1="172.26" y1="259.85" x2="172.27" y2="266.17"/><line class="cls-10" x1="196.79" y1="265.69" x2="196.78" y2="259.81"/><path class="cls-10" d="M189.63,88.5a21.8,21.8,0,0,0,8.78,4.25,22.45,22.45,0,0,0,4,.57A22.05,22.05,0,0,0,218,88.09a20.68,20.68,0,0,0,3.73-4.26,19.71,19.71,0,0,0,1.56-2.94,18.78,18.78,0,0,0-1.66-17.77,20.32,20.32,0,0,0-5.51-5.66,22.27,22.27,0,0,0-11.62-4,22,22,0,0,0-15.15,4.84.05.05,0,0,0,0,0" transform="translate(-3.83)"/><path class="cls-10" d="M198.41,92.75c-.15.78,2.62,17.14,4.73,19.9s7.16,17.65,7.65,20.09,1.3,7.29,1.3,7.29,2.41,0,5.51-.2a83.84,83.84,0,0,0,8.93-.9,12.78,12.78,0,0,0,4-1.2c1-.62,1.2-2.5,1-4.89,0-.25,0-.52-.07-.78-.72-5.73-3.41-13.84-3.53-15.7-.16-2.77-.83-16.87-1.16-18.9s-5-13.63-5-13.63" transform="translate(-3.83)"/><path class="cls-10" d="M236.72,153.62c.32,9.15,1,32.64-.08,36-.09.27-.65.5-1.53.68a59.31,59.31,0,0,1-17,.13c-1-.2-1.67-.45-1.86-.77-1.22-2-3.06-38-3.06-38s2.24-.27,5.37-.59c2.57-.27,5.74-.57,8.76-.78a68.56,68.56,0,0,1,9.21-.28S236.64,151.36,236.72,153.62Z" transform="translate(-3.83)"/><path class="cls-10" d="M217.61,140s.91,10.49,1,10.75" transform="translate(-3.83)"/><path class="cls-10" d="M226.53,138.93s.49,9.87.81,11" transform="translate(-3.83)"/><path class="cls-10" d="M240.19,138.89c-.54-1.2-1.3-1.94-2.15-1.94-1.65,0-3,2.9-3,6.49s1.35,6.46,3,6.46a2.19,2.19,0,0,0,1.68-1.11,9.92,9.92,0,0,0,1.31-5.37c0-.28,0-.57,0-.85a10.79,10.79,0,0,0-.83-3.66" transform="translate(-3.83)"/><path class="cls-10" d="M240.2,138.91v0c-.12-.37-2.23-6.43-8.56-6.06" transform="translate(-3.83)"/><path class="cls-10" d="M239.74,148.79s-1.28,4.21-2.54,4.82" transform="translate(-3.83)"/><path class="cls-10" d="M212.09,140a9.81,9.81,0,0,0,1.15,11.6" transform="translate(-3.83)"/><path class="cls-10" d="M236,200.17a10.76,10.76,0,0,1,2.55,1.24l-1.27,5.68c-5.87-2.59-21,0-21,0v-5.66s.72-.26,1.94-.59c3.7-1,11.9-2.79,17.82-.7" transform="translate(-3.83)"/><line class="cls-10" x1="214.34" y1="190.39" x2="214.35" y2="200.86"/><polyline class="cls-10" points="231.28 190.26 232.02 198.51 232.17 200.16 232.17 200.17"/><path class="cls-10" d="M241.05,142.57h3s1.15,11.19,0,15.56-2.22,40.36-2.22,40.36H236" transform="translate(-3.83)"/><path class="cls-10" d="M221.65,63.12s-4.19,11.17,1.66,17.77L231.56,88c-.07,2,3.46,30,3.46,30s1,10.2.88,11.33-4.18,2.67-4.43,2.77h0" transform="translate(-3.83)"/><path class="cls-10" d="M216.14,57.46s-9.82,13.4,1.88,30.63" transform="translate(-3.83)"/><path class="cls-10" d="M61.16,53.91c-5.42-2.79-9.55-1.58-9.55-1.58a21.93,21.93,0,0,0-6.87,2.41,20.94,20.94,0,0,0-6.09,5,19,19,0,0,0-4.32,11.06,18.48,18.48,0,0,0,.8,6.45,19.17,19.17,0,0,0,1.24,3.09A20.08,20.08,0,0,0,39.63,85a21.72,21.72,0,0,0,9.17,5.78s2.22.68,7.89,0" transform="translate(-3.83)"/><path class="cls-10" d="M58.14,94c-1.23,4.68-4.41,15-6.3,17-2.38,2.51-9,16.8-9.72,19.17s-2.06,7.11-2.06,7.11-2.39-.28-5.45-.78a80,80,0,0,1-8.79-1.83,12.68,12.68,0,0,1-3.89-1.61c-.94-.73-.94-2.61-.45-5,0-.25.09-.5.15-.76,1.31-5.62,4.85-13.4,5.16-15.24.46-2.74,2.6-16.69,3.14-18.67s6.44-13,6.44-13" transform="translate(-3.83)"/><path class="cls-10" d="M14.14,148.21c-1.29,9.07-4.46,32.35-3.71,35.76,0,.16.23.32.57.49,2.57,1.29,13.23,2.69,17.72,2.25a3.11,3.11,0,0,0,1.94-.57c1.42-1.8,7-37.45,7-37.45s-2.2-.5-5.28-1.15c-2.52-.53-5.63-1.17-8.62-1.71a68.65,68.65,0,0,0-9.13-1.24S14.45,146,14.14,148.21Z" transform="translate(-3.83)"/><path class="cls-10" d="M34.58,136.69s-2,10.34-2.11,10.59" transform="translate(-3.83)"/><path class="cls-10" d="M25.82,134.66s-1.53,9.78-2,10.84" transform="translate(-3.83)"/><path class="cls-10" d="M11.66,143.11a9.89,9.89,0,0,1-.76-5.5c0-.29.07-.57.12-.84a10.47,10.47,0,0,1,1.22-3.56,0,0,0,0,1,0,0" transform="translate(-3.83)"/><path class="cls-10" d="M12.26,133.15c.67-1.12,1.5-1.75,2.32-1.66,1.65.17,2.68,3.2,2.3,6.75s-2,6.3-3.68,6.12a2.17,2.17,0,0,1-1.54-1.23" transform="translate(-3.83)"/><path class="cls-10" d="M12.24,133.21s0,0,0,0v0c.3-.63,3-6.09,9.14-5.09" transform="translate(-3.83)"/><path class="cls-10" d="M11.65,143.08v0c.1.48.88,4.31,2,5" transform="translate(-3.83)"/><path class="cls-10" d="M40.06,137.27a9.79,9.79,0,0,1-2.37,11.42" transform="translate(-3.83)"/><path class="cls-10" d="M9.84,195.74a11.07,11.07,0,0,0-2.54.95L8,202.46c6.11-2,20.91,2.25,20.91,2.25l.6-5.65a47.66,47.66,0,0,0-5-1.88C20.4,195.88,14.56,194.58,9.84,195.74Z" transform="translate(-3.83)"/><line class="cls-10" x1="24.9" y1="186.71" x2="23.78" y2="197.14"/><path class="cls-10" d="M11,136.77l-3-.33s-2.32,11-1.66,15.47-2,40.37-2,40.37l5.8.63-.29,2.83" transform="translate(-3.83)"/><path class="cls-10" d="M38.65,59.77s3,11.57-3.52,17.51l-9,6.18C26,85.4,19.6,112.91,19.6,112.91s-2.13,10-2.08,11.19,3.87,3.09,4.11,3.21h0" transform="translate(-3.83)"/><path class="cls-10" d="M44.74,54.74S53.07,69.09,39.63,85" transform="translate(-3.83)"/><line class="cls-10" x1="6.31" y1="192.91" x2="7.17" y2="184.46"/></svg>